<?xml version="1.0" encoding="UTF-8" standalone="no"?>
<!-- Created with Inkscape (http://www.inkscape.org/) -->

<svg
   width="16"
   height="16"
   viewBox="0 0 4.2333333 4.2333335"
   version="1.1"
   id="svg291"
   inkscape:version="1.4.3 (0d15f75042, 2025-12-25)"
   sodipodi:docname="icon.svg"
   xmlns:inkscape="http://www.inkscape.org/namespaces/inkscape"
   xmlns:sodipodi="http://sodipodi.sourceforge.net/DTD/sodipodi-0.dtd"
   xmlns="http://www.w3.org/2000/svg"
   xmlns:svg="http://www.w3.org/2000/svg">
  <sodipodi:namedview
     id="namedview293"
     pagecolor="#ffffff"
     bordercolor="#666666"
     borderopacity="1.0"
     inkscape:pageshadow="2"
     inkscape:pageopacity="0.0"
     inkscape:pagecheckerboard="0"
     inkscape:document-units="px"
     showgrid="false"
     width="1920px"
     units="px"
     borderlayer="true"
     inkscape:showpageshadow="false"
     inkscape:zoom="37.166668"
     inkscape:cx="9.6188337"
     inkscape:cy="9.9686095"
     inkscape:window-width="2560"
     inkscape:window-height="1371"
     inkscape:window-x="0"
     inkscape:window-y="0"
     inkscape:window-maximized="1"
     inkscape:current-layer="layer1"
     inkscape:deskcolor="#d1d1d1" />
  <defs
     id="defs288" />
  <g
     inkscape:label="Layer 1"
     inkscape:groupmode="layer"
     id="layer1">
    <path
       id="path3615"
       style="clip-rule:evenodd;fill-opacity:1;fill-rule:evenodd;stroke:none;stroke-width:0.0021699;stroke-linecap:round;stroke-linejoin:round;stroke-miterlimit:40"
       d="m 3.4361131,0.17193305 c 0,0 -0.9273044,0.008876 -1.3910148,0.0175476 -0.4169023,0.007791 -1.24957411,0.0281818 -1.24957411,0.0281818 -0.37509012,0.006486 -0.71141166,0.32896459 -0.70295162,0.70401526 L 0.13564348,2.8343235 c 0.009423,0.4177023 0.34740793,0.6555422 0.65988124,0.6503101 L 1.3655431,3.4750579 C 1.4010972,3.8398017 1.6415327,4.041389 1.9717194,4.1227095 2.1047067,4.1554628 2.3320291,4.1422823 2.4906913,4.0620922 2.0953858,3.896561 2.093278,3.6867115 2.1307072,3.4623003 L 3.5227858,3.438905 C 3.8978793,3.4326297 4.1185865,3.0930038 4.1220495,2.7178738 L 4.1390642,0.84829822 C 4.1425279,0.47316803 3.8112483,0.17479221 3.4361131,0.17193305 Z M 1.8871734,0.91529664 c 0.0921,0.004495 0.1709576,0.0674953 0.1956778,0.15632956 L 2.3194726,1.9202728 2.494413,1.7798954 C 2.6323641,1.6691991 2.8374178,1.764201 2.8421668,1.9410105 l 0.012229,0.469521 C 2.8572845,2.5283637 2.7643117,2.6263301 2.6464887,2.6296056 2.5284512,2.6327983 2.4301566,2.5397332 2.426883,2.4216978 L 2.425813,2.3839448 2.334885,2.4567918 C 2.2152289,2.5532437 2.0359306,2.4958118 1.9945799,2.3477866 L 1.9844862,2.3110972 1.9525827,2.6647001 C 1.9310389,2.9061327 1.5879292,2.9312589 1.5314435,2.6955407 L 1.4032956,2.1664659 1.2714257,2.459451 C 1.1844731,2.6528175 0.89943883,2.6155097 0.86518131,2.4062782 L 0.6913044,1.3412153 C 0.67222062,1.2246301 0.75125644,1.1146468 0.86783988,1.0955546 0.9844252,1.0764704 1.0944086,1.1555061 1.1135008,1.2720901 l 0.059554,0.3642373 0.096243,-0.2142887 c 0.075177,-0.1444858 0.2778053,-0.1553201 0.36796,-0.019674 l 0.026587,-0.2924536 c 0.00941,-0.1027492 0.090802,-0.184148 0.1935509,-0.19355084 0.00988,-0.001046 0.01984,-0.001401 0.029778,-0.001063 z m 1.488322,0.0324356 c 0.00906,-2.4481e-4 0.018112,1.1045e-4 0.027118,0.001063 0.1124705,0.0132238 0.1929323,0.11510996 0.179726,0.22758246 L 3.4690807,2.1552991 C 3.4561195,2.2677519 3.3544928,2.3484343 3.2420304,2.3355568 3.1293452,2.3226027 3.0485791,2.2206325 3.0617726,2.107975 L 3.175032,1.1290535 C 3.1869297,1.0268959 3.2726599,0.94935214 3.3754954,0.94773224 Z M 3.1601434,2.4551969 c 0.1123319,1.38e-4 0.203278,0.091322 0.2031222,0.203654 -1.377e-4,0.1121243 -0.090998,0.2029845 -0.2031222,0.2031223 -0.1123319,1.557e-4 -0.203516,-0.09079 -0.2036539,-0.2031223 -1.561e-4,-0.1125396 0.091115,-0.20381 0.2036539,-0.203654 z"
       fill="#e0e0e0"
       sodipodi:nodetypes="cccccccscccccccccsccccccccccccccccccccccccccccccccccc" />
  </g>
</svg>
