<?xml version="1.0" encoding="UTF-8" standalone="no"?>
<!-- Created with Inkscape (http://www.inkscape.org/) -->

<svg
   width="16"
   height="16"
   viewBox="0 0 4.2333333 4.2333335"
   version="1.1"
   id="svg291"
   inkscape:version="1.2.1 (9c6d41e410, 2022-07-14)"
   sodipodi:docname="icon.svg"
   xmlns:inkscape="http://www.inkscape.org/namespaces/inkscape"
   xmlns:sodipodi="http://sodipodi.sourceforge.net/DTD/sodipodi-0.dtd"
   xmlns="http://www.w3.org/2000/svg"
   xmlns:svg="http://www.w3.org/2000/svg">
  <sodipodi:namedview
     id="namedview293"
     pagecolor="#ffffff"
     bordercolor="#666666"
     borderopacity="1.0"
     inkscape:pageshadow="2"
     inkscape:pageopacity="0.0"
     inkscape:pagecheckerboard="0"
     inkscape:document-units="px"
     showgrid="false"
     width="1920px"
     units="px"
     borderlayer="true"
     inkscape:showpageshadow="false"
     inkscape:zoom="18.583334"
     inkscape:cx="9.3901342"
     inkscape:cy="13.506726"
     inkscape:window-width="1440"
     inkscape:window-height="890"
     inkscape:window-x="-6"
     inkscape:window-y="-6"
     inkscape:window-maximized="1"
     inkscape:current-layer="layer1"
     inkscape:deskcolor="#d1d1d1" />
  <defs
     id="defs288" />
  <g
     inkscape:label="Layer 1"
     inkscape:groupmode="layer"
     id="layer1">
    <path
       id="path3615"
       style="clip-rule:evenodd;fill-opacity:1;fill-rule:evenodd;stroke:none;stroke-width:0.00206088;stroke-linecap:round;stroke-linejoin:round;stroke-miterlimit:40"
       d="M 2.3616237,0.32495581 C 2.2890187,0.32469635 2.2284054,0.32546079 2.1926162,0.32687081 1.8949218,0.33860011 1.5033325,0.34148331 1.2561323,0.35080961 1.1421362,0.35510961 0.51253678,0.28342811 0.31150932,0.54279835 0.0999174,0.81580911 0.23804642,2.0559707 0.22102032,2.2314376 0.21014342,2.34358 0.20066442,2.896122 0.41300909,3.1219592 0.60816171,3.3295105 0.90177008,3.3453424 0.95593994,3.3503348 1.0177384,3.3560148 1.5339832,3.3499581 1.574996,3.351287 c 0.015313,4.929e-4 0.064365,0.00139 0.1311843,0.00287 0.027454,0.1558591 0.1348816,0.4055146 0.2891801,0.5079801 0.1737371,0.1153709 0.5840376,0.1672049 0.633898,0.1417174 0.033884,-0.017324 0.2120976,-0.020746 0.2120976,-0.03926 -3e-7,-0.00281 -0.1359618,-0.075872 -0.1795407,-0.098149 C 2.5715112,3.8202919 2.5190005,3.7242168 2.4506759,3.6543568 2.4244915,3.6275965 2.4279949,3.4751553 2.4315249,3.3742737 2.5495776,3.3733989 2.8697241,3.3839918 2.9371113,3.3838502 3.0975326,3.3835266 3.5689747,3.3993771 3.8080031,3.1818075 4.0962844,2.9193889 4.0228795,2.3969451 4.0186641,2.3267119 4.013119,2.2343213 4.0250025,1.6246294 4.0162732,1.4864616 4.0028561,1.274529 4.0737709,0.94594107 3.8376871,0.59402732 3.6199123,0.26941205 3.0597025,0.34195584 3.0151516,0.33931907 2.9077682,0.33296522 2.5794394,0.32573415 2.3616237,0.32495581 Z m 0.9580286,0.52713126 a 0.19209624,0.19209624 0 0 1 0.063678,0.007659 A 0.19209624,0.19209624 0 0 1 3.5121209,1.10057 c -0.019132,0.064024 -0.02934,0.114542 -0.029205,0.1517718 a 0.19211544,0.19211544 0 0 0 0,4.785e-4 0.19211544,0.19211544 0 0 0 0,4.785e-4 0.19211544,0.19211544 0 0 0 0,4.784e-4 0.19211544,0.19211544 0 0 0 0,4.785e-4 0.19211544,0.19211544 0 0 0 0,4.786e-4 0.19211544,0.19211544 0 0 0 0,4.784e-4 0.19211544,0.19211544 0 0 0 0,4.785e-4 0.19211544,0.19211544 0 0 0 0,4.784e-4 0.19211544,0.19211544 0 0 0 0,4.786e-4 0.19211544,0.19211544 0 0 0 0,4.785e-4 0.19211544,0.19211544 0 0 0 0,4.784e-4 0.19211544,0.19211544 0 0 0 0,4.785e-4 0.19211544,0.19211544 0 0 0 0,4.785e-4 0.19211544,0.19211544 0 0 0 0,4.785e-4 0.19211544,0.19211544 0 0 0 0,4.785e-4 0.19211544,0.19211544 0 0 0 0,4.784e-4 0.19211544,0.19211544 0 0 0 0,4.786e-4 0.19211544,0.19211544 0 0 0 0,4.784e-4 0.19211544,0.19211544 0 0 0 0,4.785e-4 c -0.00327,0.073938 -0.00815,0.1281478 -0.00336,0.1646986 a 0.19211544,0.19211544 0 0 1 0.00192,0.01963 c 0.00122,0.044001 0.00215,0.096625 -0.00383,0.1560806 a 0.19211544,0.19211544 0 0 1 -0.0091,0.04309 c 0.00152,-0.00444 0.00292,-0.00713 0.00383,-0.00814 0.00239,4.689e-4 -5.16e-5,0.023556 -0.012927,0.069423 l -4.786e-4,0.00144 c -0.00322,0.018276 -0.00512,0.060008 -0.010052,0.1072455 2.1e-6,-1.573e-4 -1.8e-5,0.00348 0,0.00383 8.03e-5,0.00155 -1.3e-6,0.00456 0,0.016278 A 0.19209624,0.19209624 0 0 1 3.256933,2.0270008 0.19209624,0.19209624 0 0 1 3.0649443,1.835012 c -2e-7,-8.421e-4 -2.139e-4,-0.00933 0,-0.025375 a 0.19211544,0.19211544 0 0 1 0.00192,-0.021545 c 0.00393,-0.029738 0.00172,-0.085222 0.018193,-0.1627834 a 0.19211544,0.19211544 0 0 1 0.00336,-0.014841 c -0.00488,0.016544 -0.00842,-0.00696 0.0091,-0.066071 0.00128,-0.023365 8.374e-4,-0.05167 0,-0.083786 5.837e-4,0.00531 0.0012,0.010844 0.00192,0.016278 l -0.00192,-0.020109 c -0.00868,-0.082861 -0.00275,-0.1509043 0,-0.2044368 -3.839e-4,-0.1048643 0.02617,-0.1913531 0.047392,-0.26236915 A 0.19209624,0.19209624 0 0 1 3.3196523,0.85208707 Z M 3.097501,1.5443956 c -3.745e-4,0.00682 -8.326e-4,0.013152 -0.00144,0.019151 l 0.00862,-0.043569 c -0.00298,0.00868 -0.00496,0.016879 -0.00718,0.024418 z M 1.7483131,1.0129554 a 0.19211544,0.19211544 0 0 1 0.1804981,0.1292692 c 0.081754,0.230866 0.1671804,0.4503689 0.2566234,0.6094805 0.060542,-0.039278 0.13119,-0.081733 0.2374723,-0.083307 0.030189,-0.00505 0.059326,-0.01228 0.095756,-0.00527 0.053638,0.010328 0.1089723,0.045047 0.1426749,0.086658 0.067401,0.08322 0.064433,0.1543836 0.063678,0.2082669 -0.00151,0.1077673 -0.021788,0.2137733 -0.022023,0.2044369 A 0.19209624,0.19209624 0 0 1 2.5167468,2.3578344 0.19209624,0.19209624 0 0 1 2.3194915,2.1715908 c -7.704e-4,-0.030281 0.0031,-0.035159 0.00527,-0.059847 -0.035038,0.025653 -0.068601,0.053251 -0.1139486,0.081391 A 0.19211544,0.19211544 0 0 1 1.9704693,2.1624936 c -0.016009,-0.016679 -0.012719,-0.040218 -0.027291,-0.057933 -0.0053,0.038768 -0.013896,0.105592 -0.030642,0.1881586 -0.00975,0.048046 -0.018553,0.093357 -0.036386,0.1412386 -0.00891,0.023941 -0.00752,0.046058 -0.061283,0.09767 -0.00671,0.00645 -0.015395,0.013123 -0.025375,0.020109 -0.00997,0.00699 -0.03579,0.021291 -0.036386,0.021545 -0.00119,5.072e-4 -0.1089417,0.013114 -0.1101182,0.012927 -5.885e-4,-9.26e-5 -0.052085,-0.016004 -0.052666,-0.016278 -5.848e-4,-2.741e-4 -0.028877,-0.016619 -0.039745,-0.025375 -0.021733,-0.017517 -0.036349,-0.03491 -0.045484,-0.048835 a 0.19211544,0.19211544 0 0 1 -0.00718,-0.012927 C 1.405201,2.3135107 1.3718331,2.1230884 1.3226821,1.9293306 1.296257,1.9926645 1.2702556,2.0360279 1.236503,2.1127015 c -0.00662,0.020181 -0.015708,0.041777 -0.033514,0.067986 -0.021835,0.03214 -0.067722,0.078719 -0.1393236,0.090488 -0.0716015,0.011769 -0.13415192,-0.018894 -0.16469865,-0.043568 -0.0305472,-0.024673 -0.042975,-0.046717 -0.0541012,-0.065113 -0.0389429,-0.064387 -0.0578673,-0.09647 -0.0526653,-0.176189 0.002344,0.010422 0.004713,0.021014 0.00718,0.031599 L 0.79602584,1.94896 c -0.001684,0.013201 -0.003086,0.025254 -0.003828,0.036387 C 0.74313508,1.766609 0.72147035,1.582656 0.68734765,1.3720365 A 0.19209624,0.19209624 0 0 1 0.84486459,1.1527576 0.19209624,0.19209624 0 0 1 1.0655799,1.3102746 c 0.012592,0.077723 0.025291,0.1404024 0.035908,0.2097036 0.010745,-0.014664 0.00973,-0.026756 0.021545,-0.041175 -0.0011,-0.00222 0.032336,-0.054265 0.079956,-0.1067668 0.013605,-0.015001 0.028067,-0.03269 0.061762,-0.052665 0.033694,-0.019975 0.1078148,-0.047748 0.1843284,-0.018193 0.068698,0.026536 0.092715,0.077474 0.1086819,0.1139485 -0.00167,-0.078755 -0.00808,-0.1467436 -0.00383,-0.2207153 A 0.19211544,0.19211544 0 0 1 1.7186306,1.0153489 0.19211544,0.19211544 0 0 1 1.748314,1.0129564 Z M 1.2365027,2.1127015 c 0.0015,-0.00457 0.00304,-0.00894 0.00431,-0.013405 l -0.00862,0.02346 c 0.00152,-0.00352 0.00282,-0.00667 0.00431,-0.010052 z M 3.1899043,2.2683033 A 0.19374282,0.20281166 0 0 1 3.3833296,2.4713039 0.19374282,0.20281166 0 0 1 3.1899043,2.6743046 0.19374282,0.20281166 0 0 1 2.9960006,2.4713039 0.19374282,0.20281166 0 0 1 3.1899043,2.2683033 Z"
       fill="#E0E0E0" />
  </g>
</svg>
