<?xml version="1.0" encoding="UTF-8" standalone="no"?>
<!-- Created with Inkscape (http://www.inkscape.org/) -->

<svg
   width="16"
   height="16"
   viewBox="0 0 4.2333333 4.2333335"
   version="1.1"
   id="svg291"
   inkscape:version="1.4.3 (0d15f75042, 2025-12-25)"
   sodipodi:docname="region.svg"
   xmlns:inkscape="http://www.inkscape.org/namespaces/inkscape"
   xmlns:sodipodi="http://sodipodi.sourceforge.net/DTD/sodipodi-0.dtd"
   xmlns="http://www.w3.org/2000/svg"
   xmlns:svg="http://www.w3.org/2000/svg">
  <sodipodi:namedview
     id="namedview293"
     pagecolor="#ffffff"
     bordercolor="#666666"
     borderopacity="1.0"
     inkscape:pageshadow="2"
     inkscape:pageopacity="0.0"
     inkscape:pagecheckerboard="0"
     inkscape:document-units="px"
     showgrid="false"
     width="1920px"
     units="px"
     borderlayer="true"
     inkscape:showpageshadow="false"
     inkscape:deskcolor="#d1d1d1"
     inkscape:zoom="21.213182"
     inkscape:cx="4.996893"
     inkscape:cy="20.859671"
     inkscape:window-width="1440"
     inkscape:window-height="891"
     inkscape:window-x="0"
     inkscape:window-y="0"
     inkscape:window-maximized="1"
     inkscape:current-layer="layer1" />
  <defs
     id="defs288" />
  <g
     inkscape:label="Layer 1"
     inkscape:groupmode="layer"
     id="layer1">
    <path
       id="rect1"
       style="opacity:1;fill:#ffffff;stroke-width:0.267078;fill-opacity:1"
       d="M 1.3229167 0.79375001 L 1.3229167 1.3229167 L 0.79375001 1.3229167 L 0.79375001 1.8520834 L 1.3229167 1.8520834 L 1.3229167 2.38125 L 0.79375001 2.38125 L 0.79375001 2.9104167 L 1.3229167 2.9104167 L 1.3229167 3.4395834 L 1.8520834 3.4395834 L 1.8520834 2.9104167 L 2.38125 2.9104167 L 2.38125 3.4395834 L 2.9104167 3.4395834 L 2.9104167 2.9104167 L 3.4395834 2.9104167 L 3.4395834 2.38125 L 2.9104167 2.38125 L 2.9104167 1.8520834 L 3.4395834 1.8520834 L 3.4395834 1.3229167 L 2.9104167 1.3229167 L 2.9104167 0.79375001 L 2.38125 0.79375001 L 2.38125 1.3229167 L 1.8520834 1.3229167 L 1.8520834 0.79375001 L 1.3229167 0.79375001 z M 1.8520834 1.8520834 L 2.38125 1.8520834 L 2.38125 2.38125 L 1.8520834 2.38125 L 1.8520834 1.8520834 z " />
  </g>
</svg>
