<?xml version="1.0" encoding="UTF-8" standalone="no"?>
<!-- Created with Inkscape (http://www.inkscape.org/) -->

<svg
   width="512"
   height="512"
   viewBox="0 0 135.46667 135.46667"
   version="1.1"
   id="svg291"
   inkscape:version="1.4.3 (0d15f75042, 2025-12-25)"
   sodipodi:docname="resource.svg"
   xmlns:inkscape="http://www.inkscape.org/namespaces/inkscape"
   xmlns:sodipodi="http://sodipodi.sourceforge.net/DTD/sodipodi-0.dtd"
   xmlns="http://www.w3.org/2000/svg"
   xmlns:svg="http://www.w3.org/2000/svg">
  <sodipodi:namedview
     id="namedview293"
     pagecolor="#ffffff"
     bordercolor="#666666"
     borderopacity="1.0"
     inkscape:pageshadow="2"
     inkscape:pageopacity="0.0"
     inkscape:pagecheckerboard="0"
     inkscape:document-units="px"
     showgrid="false"
     width="1920px"
     units="px"
     borderlayer="true"
     inkscape:showpageshadow="false"
     inkscape:zoom="1.6425502"
     inkscape:cx="301.05625"
     inkscape:cy="295.57697"
     inkscape:window-width="2560"
     inkscape:window-height="1371"
     inkscape:window-x="0"
     inkscape:window-y="0"
     inkscape:window-maximized="1"
     inkscape:current-layer="layer1"
     inkscape:deskcolor="#d1d1d1" />
  <defs
     id="defs288" />
  <g
     inkscape:label="Layer 1"
     inkscape:groupmode="layer"
     id="layer1">
    <path
       id="path3615"
       style="clip-rule:evenodd;fill-opacity:1;fill-rule:evenodd;stroke:none;stroke-width:0.0723861;stroke-linecap:round;stroke-linejoin:round;stroke-miterlimit:40"
       d="M 76.530117,3.01381 C 73.979945,3.004697 71.850968,3.0315469 70.593912,3.0810724 60.137719,3.4930512 46.38357,3.5943205 37.700932,3.9218966 33.696943,4.0729295 11.582947,1.5551946 4.5220759,10.665293 -2.9098604,20.254498 1.9417714,63.813827 1.3437481,69.976911 c -0.38203921,3.93888 -0.71497879,23.346318 6.743397,31.278609 6.8545239,7.29001 17.1671989,7.84608 19.0698559,8.02144 2.170605,0.1995 20.303142,-0.0132 21.743672,0.0334 0.537852,0.0173 2.26075,0.0488 4.607706,0.1008 0.964292,5.47438 4.73757,14.24326 10.157137,17.84225 6.102327,4.05228 20.513687,5.87289 22.264979,4.97767 1.190138,-0.60849 7.449697,-0.72868 7.449697,-1.37896 -10e-6,-0.0987 -4.77551,-2.66493 -6.306171,-3.44738 -3.171834,-1.6211 -5.016215,-4.99563 -7.416043,-7.44939 -0.919698,-0.93992 -0.796645,-6.29425 -0.672657,-9.83761 4.146472,-0.0307 15.39127,0.34134 17.758172,0.33636 5.634627,-0.0114 22.193517,0.54537 30.589137,-7.09653 10.12556,-9.217163 7.5473,-27.567433 7.39924,-30.034298 -0.19477,-3.245113 0.22262,-24.65988 -0.084,-29.512874 -0.47126,-7.443902 2.01954,-18.985196 -6.27264,-31.345783 C 120.72614,1.0628958 101.04938,3.6109176 99.484574,3.5183039 95.712849,3.2951318 84.180657,3.0411484 76.530117,3.01381 Z m 33.649713,18.514912 a 6.7471717,6.7471717 0 0 1 2.23663,0.269015 6.7471717,6.7471717 0 0 1 4.52363,8.458678 c -0.67199,2.248774 -1.03054,4.023164 -1.0258,5.33082 a 6.7478462,6.7478462 0 0 0 0,0.01681 6.7478462,6.7478462 0 0 0 0,0.01681 6.7478462,6.7478462 0 0 0 0,0.0168 6.7478462,6.7478462 0 0 0 0,0.01681 6.7478462,6.7478462 0 0 0 0,0.01681 6.7478462,6.7478462 0 0 0 0,0.0168 6.7478462,6.7478462 0 0 0 0,0.0168 6.7478462,6.7478462 0 0 0 0,0.0168 6.7478462,6.7478462 0 0 0 0,0.01681 6.7478462,6.7478462 0 0 0 0,0.01681 6.7478462,6.7478462 0 0 0 0,0.0168 6.7478462,6.7478462 0 0 0 0,0.01681 6.7478462,6.7478462 0 0 0 0,0.01681 6.7478462,6.7478462 0 0 0 0,0.01681 6.7478462,6.7478462 0 0 0 0,0.01681 6.7478462,6.7478462 0 0 0 0,0.0168 6.7478462,6.7478462 0 0 0 0,0.01681 6.7478462,6.7478462 0 0 0 0,0.0168 6.7478462,6.7478462 0 0 0 0,0.01681 c -0.11486,2.596992 -0.28626,4.501052 -0.11801,5.784858 a 6.7478462,6.7478462 0 0 1 0.0674,0.689483 c 0.0429,1.545487 0.0755,3.393848 -0.13453,5.482163 a 6.7478462,6.7478462 0 0 1 -0.31962,1.513469 c 0.0534,-0.15595 0.10257,-0.250435 0.13453,-0.285909 0.084,0.01647 -0.002,0.827379 -0.45405,2.438408 l -0.0168,0.05058 c -0.1131,0.641925 -0.17983,2.107716 -0.35306,3.766882 7e-5,-0.0055 -6.4e-4,0.122235 0,0.134528 0.003,0.05445 -5e-5,0.160166 0,0.571747 a 6.7471717,6.7471717 0 0 1 -6.74328,6.743515 6.7471717,6.7471717 0 0 1 -6.74339,-6.743398 c -1e-5,-0.02958 -0.008,-0.327707 0,-0.891269 a 6.7478462,6.7478462 0 0 1 0.0674,-0.756746 c 0.13804,-1.044514 0.0604,-2.99333 0.63901,-5.717589 a 6.7478462,6.7478462 0 0 1 0.11802,-0.521275 c -0.17141,0.581091 -0.29575,-0.244462 0.31962,-2.320671 0.045,-0.820671 0.0294,-1.814853 0,-2.942893 0.0205,0.186509 0.0422,0.380885 0.0674,0.571747 l -0.0674,-0.706307 c -0.30487,-2.910403 -0.0966,-5.300349 0,-7.18062 -0.0135,-3.683245 0.9192,-6.72107 1.6646,-9.215431 a 6.7471717,6.7471717 0 0 1 6.13765,-4.843117 z m -7.80282,24.316586 c -0.0132,0.239545 -0.0292,0.461949 -0.0506,0.672657 l 0.30277,-1.530312 c -0.10467,0.304875 -0.17421,0.592855 -0.25219,0.857655 z M 54.988249,27.179048 a 6.7478462,6.7478462 0 0 1 6.339799,4.54044 c 2.871521,8.108918 5.872029,15.818718 9.013618,21.407341 2.126472,-1.379597 4.607906,-2.870784 8.340957,-2.926069 1.060355,-0.177376 2.08376,-0.43132 3.363325,-0.185103 1.883976,0.36276 3.827533,1.582228 5.0113,3.043768 2.367388,2.923013 2.263139,5.422557 2.236622,7.315149 -0.05304,3.785209 -0.765281,7.508556 -0.773535,7.180625 a 6.7471717,6.7471717 0 0 1 -6.541688,6.861263 6.7471717,6.7471717 0 0 1 -6.928379,-6.541605 c -0.02706,-1.063587 0.108891,-1.234921 0.185105,-2.10206 -1.230672,0.901034 -2.409536,1.870384 -4.002321,2.858771 a 6.7478462,6.7478462 0 0 1 -8.441809,-1.07624 c -0.562298,-0.585831 -0.446741,-1.412614 -0.958566,-2.034834 -0.186158,1.361685 -0.488083,3.708805 -1.076267,6.608868 -0.342458,1.687563 -0.651654,3.279062 -1.27802,4.960851 -0.312953,0.840903 -0.264131,1.617738 -2.152498,3.430553 -0.235682,0.22655 -0.540733,0.460932 -0.891269,0.706307 -0.350186,0.245517 -1.257085,0.747824 -1.278019,0.756744 -0.0418,0.01782 -3.826458,0.460615 -3.867782,0.454048 -0.02066,-0.0033 -1.82943,-0.562124 -1.849836,-0.571747 -0.02054,-0.0097 -1.014274,-0.583724 -1.396001,-0.89127 -0.763347,-0.615265 -1.276719,-1.226175 -1.597575,-1.715276 A 6.7478462,6.7478462 0 0 1 46.19322,78.805525 C 42.936809,72.85964 41.764797,66.171264 40.038422,59.365731 c -0.928153,2.224534 -1.841425,3.747628 -3.026947,6.440704 -0.23252,0.708835 -0.551727,1.467372 -1.177143,2.387934 -0.766932,1.128883 -2.378662,2.76492 -4.89359,3.178294 -2.514926,0.413372 -4.711941,-0.663632 -5.784862,-1.530279 -1.072936,-0.866613 -1.50945,-1.640885 -1.900245,-2.287023 -1.367829,-2.261525 -2.032526,-3.388405 -1.849812,-6.188448 0.08233,0.366061 0.165538,0.738094 0.252189,1.10988 l -0.117816,-2.4216 c -0.05915,0.463671 -0.108393,0.88702 -0.134457,1.278054 -1.723276,-7.682934 -2.484228,-14.144085 -3.68275,-21.541865 a 6.7471717,6.7471717 0 0 1 5.532612,-7.701934 6.7471717,6.7471717 0 0 1 7.752385,5.532614 c 0.442281,2.729936 0.888319,4.931481 1.261229,7.36561 0.377406,-0.515056 0.341756,-0.939775 0.756746,-1.446226 -0.03864,-0.07798 1.135767,-1.906 2.808367,-3.750069 0.477861,-0.526893 0.985822,-1.148199 2.169324,-1.8498 1.183464,-0.7016 3.786877,-1.677097 6.474334,-0.639009 2.412943,0.932048 3.256513,2.72119 3.817334,4.002317 -0.05865,-2.766184 -0.283802,-5.15421 -0.134529,-7.752384 a 6.7478462,6.7478462 0 0 1 5.784887,-6.289385 6.7478462,6.7478462 0 0 1 1.042598,-0.08403 z M 37.011464,65.806435 c 0.05268,-0.160516 0.106773,-0.314008 0.151383,-0.470836 l -0.302767,0.824007 c 0.05339,-0.123642 0.09904,-0.234276 0.151384,-0.353066 z m 68.611116,5.465344 a 6.8050061,7.1235393 0 0 1 6.79385,7.130176 6.8050061,7.1235393 0 0 1 -6.79385,7.13018 6.8050061,7.1235393 0 0 1 -6.810663,-7.13018 6.8050061,7.1235393 0 0 1 6.810663,-7.130176 z"
       fill="#e0e0e0" />
  </g>
</svg>
