<?xml version="1.0" encoding="UTF-8" standalone="no"?>
<!-- Created with Inkscape (http://www.inkscape.org/) -->

<svg
   width="512"
   height="512"
   viewBox="0 0 135.46667 135.46667"
   version="1.1"
   id="svg291"
   inkscape:version="1.4.3 (0d15f75042, 2025-12-25)"
   sodipodi:docname="resource.svg"
   xmlns:inkscape="http://www.inkscape.org/namespaces/inkscape"
   xmlns:sodipodi="http://sodipodi.sourceforge.net/DTD/sodipodi-0.dtd"
   xmlns="http://www.w3.org/2000/svg"
   xmlns:svg="http://www.w3.org/2000/svg">
  <sodipodi:namedview
     id="namedview293"
     pagecolor="#ffffff"
     bordercolor="#666666"
     borderopacity="1.0"
     inkscape:pageshadow="2"
     inkscape:pageopacity="0.0"
     inkscape:pagecheckerboard="0"
     inkscape:document-units="px"
     showgrid="false"
     width="1920px"
     units="px"
     borderlayer="true"
     inkscape:showpageshadow="false"
     inkscape:zoom="0.58072919"
     inkscape:cx="374.52913"
     inkscape:cy="514.00895"
     inkscape:window-width="2560"
     inkscape:window-height="1371"
     inkscape:window-x="0"
     inkscape:window-y="0"
     inkscape:window-maximized="1"
     inkscape:current-layer="layer1"
     inkscape:deskcolor="#d1d1d1" />
  <defs
     id="defs288" />
  <g
     inkscape:label="Layer 1"
     inkscape:groupmode="layer"
     id="layer1">
    <path
       id="path3615"
       style="clip-rule:evenodd;fill-opacity:1;fill-rule:evenodd;stroke:none;stroke-width:0.0644195;stroke-linecap:round;stroke-linejoin:round;stroke-miterlimit:40"
       d="m 109.79619,6.6259108 c 0,0 -29.445141,0.2826074 -44.169618,0.5572765 C 52.388478,7.4308653 25.947858,8.0780046 25.947858,8.0780046 14.037388,8.2844036 3.3580105,18.52384 3.6266484,30.433072 l 1.36858,60.73343 C 5.2810066,104.4301 16.026755,111.98239 25.94881,111.81624 l 18.100215,-0.30482 c 1.130423,11.58194 8.763679,17.98305 19.248417,20.56526 4.22291,1.03993 11.44115,0.62142 16.479185,-1.9249 C 67.22441,124.89557 67.157415,118.23207 68.345951,111.10621 l 44.203599,-0.74273 c 11.91046,-0.20004 18.91882,-10.983615 19.02868,-22.895356 l 0.53981,-59.365833 C 132.2133,16.19055 121.70889,6.7160272 109.79682,6.6252443 Z M 60.611721,30.23042 c 2.924502,0.142891 5.428594,2.14337 6.21355,4.964013 l 7.513542,26.947628 5.554983,-4.457512 c 4.380411,-3.515 10.891816,-0.498215 11.042643,5.116018 l 0.387392,14.908999 c 0.09526,3.741594 -2.861004,6.85237 -6.601894,6.956396 -3.748204,0.101612 -6.869267,-2.8537 -6.973418,-6.601835 l -0.03177,-1.1987 -2.886403,2.313253 c -3.799328,3.062638 -9.49276,1.239026 -10.805772,-3.461306 l -0.320708,-1.16504 -1.012941,11.22818 c -0.682702,7.666374 -11.578967,8.464217 -13.372726,0.979283 l -4.068913,-16.800056 -4.187348,9.30334 c -2.762564,6.140073 -11.81203,4.95544 -12.899912,-1.688341 L 22.6407,43.755118 c -0.606487,-3.701997 1.905223,-7.194356 5.605789,-7.800598 3.70216,-0.606176 7.194418,1.90363 7.800602,5.605628 l 1.892515,11.56585 3.054701,-6.804424 c 2.387867,-4.587955 8.821161,-4.931974 11.68406,-0.624593 l 0.844654,-9.286478 c 0.285777,-3.262654 2.883225,-5.847368 6.146234,-6.145948 0.317531,-0.03176 0.628718,-0.04446 0.946258,-0.03493 z m 47.259879,1.030088 c 0.28579,-0.0078 0.57475,0.0035 0.86052,0.03493 3.57135,0.419783 6.12655,3.65516 5.70708,7.226587 l -3.59642,31.0843 c -0.41279,3.57079 -3.63864,6.132738 -7.20965,5.723847 -3.57801,-0.411211 -6.142738,-3.649287 -5.723913,-7.226556 l 3.596413,-31.084333 c 0.37787,-3.243856 3.09916,-5.706159 6.36566,-5.7576 z m -6.83846,47.867493 c 3.5672,0.0044 6.45488,2.899742 6.45012,6.466754 -0.004,3.560345 -2.88959,6.445479 -6.45012,6.449862 -3.566883,0.005 -6.462177,-2.882913 -6.466627,-6.449862 -0.0054,-3.573553 2.892757,-6.471709 6.466627,-6.466754 z"
       fill="#e0e0e0"
       sodipodi:nodetypes="ccccccccccccccccccsccccccccccccccccccccccccccccccccccccc" />
  </g>
</svg>
