<?xml version="1.0" encoding="UTF-8" standalone="no"?>
<!-- Created with Inkscape (http://www.inkscape.org/) -->

<svg
   width="300"
   height="80"
   viewBox="0 0 79.374999 21.166667"
   version="1.1"
   id="svg291"
   inkscape:version="1.4.3 (0d15f75042, 2025-12-25)"
   sodipodi:docname="update.svg"
   xmlns:inkscape="http://www.inkscape.org/namespaces/inkscape"
   xmlns:sodipodi="http://sodipodi.sourceforge.net/DTD/sodipodi-0.dtd"
   xmlns="http://www.w3.org/2000/svg"
   xmlns:svg="http://www.w3.org/2000/svg">
  <sodipodi:namedview
     id="namedview293"
     pagecolor="#ffffff"
     bordercolor="#666666"
     borderopacity="1.0"
     inkscape:pageshadow="2"
     inkscape:pageopacity="0.0"
     inkscape:pagecheckerboard="0"
     inkscape:document-units="px"
     showgrid="false"
     width="1920px"
     units="px"
     borderlayer="true"
     inkscape:showpageshadow="false"
     inkscape:zoom="4"
     inkscape:cx="200.375"
     inkscape:cy="38.125"
     inkscape:window-width="2560"
     inkscape:window-height="1371"
     inkscape:window-x="0"
     inkscape:window-y="0"
     inkscape:window-maximized="1"
     inkscape:current-layer="layer1"
     inkscape:deskcolor="#d1d1d1" />
  <defs
     id="defs288" />
  <g
     inkscape:label="Layer 1"
     inkscape:groupmode="layer"
     id="layer1">
    <g
       id="g1"
       transform="matrix(0.81283762,0,0,0.81283762,11.186969,23.699699)">
      <path
         id="path1"
         style="fill:#bd93f9;fill-opacity:1;stroke:#4d425c;stroke-width:0.682648;stroke-linecap:round;stroke-linejoin:round;stroke-dasharray:none;stroke-opacity:1"
         d="m 41.547157,-26.152788 c 0,0 -4.765703,0.04444 -7.148052,0.08897 -2.141867,0.04004 -6.420215,0.145646 -6.420215,0.145646 -1.927055,0.03332 -3.655115,1.689084 -3.611651,3.615936 l 0.221673,9.827165 c 0.04841,2.145978 1.784622,3.3688431 3.389978,3.3419635 l 2.928796,-0.049054 c 0.182666,1.8738989 1.418519,2.9075054 3.114879,3.3252953 0.683233,0.1682709 1.850551,0.1019838 2.665691,-0.3099941 -2.03091,-0.8504518 -2.04135,-1.9281801 -1.849055,-3.0811099 l 7.1513,-0.1197548 c 1.927073,-0.032269 3.061846,-1.777345 3.079637,-3.704604 l 0.08867,-9.605494 c 0.01779,-1.92726 -1.684364,-3.460278 -3.61165,-3.474966 z" />
      <path
         id="path19"
         style="baseline-shift:baseline;display:inline;overflow:visible;vector-effect:none;fill:#ffffff;stroke-width:0.0884883;stroke-linecap:round;stroke-linejoin:round;enable-background:accumulate;stop-color:#000000"
         d="m 33.588456,-22.332818 a 1.0991218,1.0991218 0 0 0 -0.152502,0.0032 1.0991218,1.0991218 0 0 0 -0.994987,0.994621 l -0.136177,1.502747 a 1.0991218,1.0991218 0 0 0 -1.89038,0.102155 l -0.495504,1.10039 -0.3061,-1.871403 a 1.0990119,1.0990119 0 0 0 -1.261991,-0.90719 1.0990119,1.0990119 0 0 0 -0.907328,1.261853 l 0.894707,5.471768 a 1.0991218,1.0991218 0 0 0 2.086733,0.273908 l 0.677867,-1.504988 0.658295,2.718233 a 1.0991218,1.0991218 0 0 0 2.162596,-0.159499 l 0.164711,-1.816255 0.05254,0.188398 a 1.0991218,1.0991218 0 0 0 1.747115,0.561307 l 0.468204,-0.376383 0.005,0.194433 a 1.0990119,1.0990119 0 0 0 1.127186,1.069981 1.0990119,1.0990119 0 0 0 1.070026,-1.127186 l -0.06274,-2.412864 a 1.0991218,1.0991218 0 0 0 -1.787265,-0.827852 l -0.898364,0.722221 -1.215989,-4.359763 a 1.0991218,1.0991218 0 0 0 -1.005641,-0.801879 z m 7.646664,0.164574 a 1.0535643,1.0535643 0 0 0 -1.029969,0.932477 l -0.581747,5.030039 a 1.0535643,1.0535643 0 0 0 0.925481,1.167608 1.0535643,1.0535643 0 0 0 1.167655,-0.92548 l 0.581928,-5.030176 a 1.0535643,1.0535643 0 0 0 -0.925709,-1.167655 1.0535643,1.0535643 0 0 0 -0.137639,-0.0068 z m -1.108073,7.746305 a 1.0448412,1.0448412 0 0 0 -1.044875,1.044829 1.0448412,1.0448412 0 0 0 1.044875,1.04483 1.0448412,1.0448412 0 0 0 1.044831,-1.04483 1.0448412,1.0448412 0 0 0 -1.044831,-1.044829 z" />
    </g>
    <path
       id="rect1625"
       style="fill:#50fa7b;fill-opacity:1;stroke:#0f451d;stroke-width:0.593381;stroke-dasharray:none;stroke-opacity:1;paint-order:normal"
       d="m 50.52517,5.3570989 c -0.643062,0 -1.160653,0.5900216 -1.160653,1.3229166 v 1.0764201 h -1.07642 c -0.732895,0 -1.322916,0.5175908 -1.322916,1.1606533 0,0.643061 0.590021,1.1611691 1.322916,1.1611691 h 1.07642 v 1.076421 c 0,0.732895 0.517591,1.322917 1.160653,1.322917 0.643062,0 1.160653,-0.590022 1.160653,-1.322917 v -1.076421 h 1.076937 c 0.732895,0 1.322916,-0.5181081 1.322916,-1.1611691 0,-0.6430625 -0.590021,-1.1606533 -1.322916,-1.1606533 H 51.685823 V 6.6800155 c 0,-0.732895 -0.517591,-1.3229166 -1.160653,-1.3229166 z" />
    <path
       id="path2678"
       style="fill:#50fa7b;fill-opacity:1;stroke:#0f451d;stroke-width:0.593381;stroke-dasharray:none;stroke-opacity:1;paint-order:normal"
       d="m 57.791691,5.357099 c -0.643062,0 -1.160653,0.5900216 -1.160653,1.3229166 v 1.0764201 h -1.07642 c -0.732895,0 -1.322916,0.5175908 -1.322916,1.1606522 0,0.643062 0.590021,1.1611701 1.322916,1.1611701 h 1.07642 v 1.076421 c 0,0.732895 0.517591,1.322917 1.160653,1.322917 0.643062,0 1.160653,-0.590022 1.160653,-1.322917 v -1.076421 h 1.076937 c 0.732895,0 1.322916,-0.5181081 1.322916,-1.1611701 0,-0.6430614 -0.590021,-1.1606522 -1.322916,-1.1606522 H 58.952344 V 6.6800156 c 0,-0.732895 -0.517591,-1.3229166 -1.160653,-1.3229166 z" />
  </g>
</svg>
