<?xml version="1.0" encoding="UTF-8" standalone="no"?>
<!-- Created with Inkscape (http://www.inkscape.org/) -->

<svg
   width="300"
   height="80"
   viewBox="0 0 79.374999 21.166667"
   version="1.1"
   id="svg291"
   inkscape:version="1.2.1 (9c6d41e410, 2022-07-14)"
   sodipodi:docname="update.svg"
   xmlns:inkscape="http://www.inkscape.org/namespaces/inkscape"
   xmlns:sodipodi="http://sodipodi.sourceforge.net/DTD/sodipodi-0.dtd"
   xmlns="http://www.w3.org/2000/svg"
   xmlns:svg="http://www.w3.org/2000/svg">
  <sodipodi:namedview
     id="namedview293"
     pagecolor="#ffffff"
     bordercolor="#666666"
     borderopacity="1.0"
     inkscape:pageshadow="2"
     inkscape:pageopacity="0.0"
     inkscape:pagecheckerboard="0"
     inkscape:document-units="px"
     showgrid="false"
     width="1920px"
     units="px"
     borderlayer="true"
     inkscape:showpageshadow="false"
     inkscape:zoom="1"
     inkscape:cx="180.5"
     inkscape:cy="111"
     inkscape:window-width="1440"
     inkscape:window-height="890"
     inkscape:window-x="-6"
     inkscape:window-y="-6"
     inkscape:window-maximized="1"
     inkscape:current-layer="layer1"
     inkscape:deskcolor="#d1d1d1" />
  <defs
     id="defs288" />
  <g
     inkscape:label="Layer 1"
     inkscape:groupmode="layer"
     id="layer1">
    <rect
       style="fill:#ffffff;fill-opacity:1;stroke:none;stroke-width:0.529167;stroke-dasharray:none;stroke-opacity:1"
       id="rect2462"
       width="13.228261"
       height="9.4236727"
       x="32.95359"
       y="4.2143135"
       ry="0.90020913" />
    <path
       id="path3615"
       style="clip-rule:evenodd;fill:#bd93f9;fill-opacity:1;fill-rule:evenodd;stroke:none;stroke-width:0.52916667;stroke-linecap:round;stroke-linejoin:round;stroke-miterlimit:40;stroke-opacity:1;stroke-dasharray:none"
       d="m 40.714378,3.0283624 c -0.297691,-0.00106 -0.546217,0.00208 -0.692956,0.00785 -1.220595,0.048091 -2.826171,0.059913 -3.83973,0.098152 -0.467403,0.017637 -3.048858,-0.2762743 -3.873101,0.7871837 -0.867561,1.1193864 -0.301209,6.2042409 -0.371018,6.9236829 -0.04459,0.459801 -0.08346,2.725309 0.787183,3.651277 0.800155,0.850991 2.003996,0.915905 2.2261,0.936375 0.253383,0.02331 2.370068,-0.0015 2.538226,0.0039 0.0628,0.002 0.263908,0.0057 0.537877,0.01177 0.112572,0.639046 0.553034,1.662672 1.185683,2.082798 0.712348,0.473037 2.394644,0.685566 2.599079,0.581063 0.138939,-0.07104 0.869634,-0.08507 0.869634,-0.160971 -2e-6,-0.01157 -0.557466,-0.311089 -0.736145,-0.402428 -0.370261,-0.189241 -0.585564,-0.583165 -0.865705,-0.869601 -0.107353,-0.109727 -0.09299,-0.734754 -0.07851,-1.148384 0.484034,-0.0035 1.796685,0.03983 2.072983,0.03926 0.657753,-0.0013 2.590738,0.06366 3.570791,-0.828408 1.181999,-1.075941 0.881027,-3.218042 0.863743,-3.50601 -0.02274,-0.378815 0.02599,-2.878646 -0.0098,-3.4451551 C 47.443688,6.9217592 47.734446,5.5744981 46.766467,4.1315973 45.873555,2.8006244 43.57661,3.0980651 43.393944,3.087254 42.953654,3.0612024 41.607455,3.0315527 40.714378,3.0283624 Z m 3.928065,2.1613198 a 0.78762433,0.78762433 0 0 1 0.261087,0.031405 0.78762433,0.78762433 0 0 1 0.528062,0.9874148 c -0.07845,0.2625075 -0.120302,0.46964 -0.119753,0.6222881 a 0.78770308,0.78770308 0 0 0 0,0.00196 0.78770308,0.78770308 0 0 0 0,0.00196 0.78770308,0.78770308 0 0 0 0,0.00196 0.78770308,0.78770308 0 0 0 0,0.00196 0.78770308,0.78770308 0 0 0 0,0.00196 0.78770308,0.78770308 0 0 0 0,0.00196 0.78770308,0.78770308 0 0 0 0,0.00196 0.78770308,0.78770308 0 0 0 0,0.00196 0.78770308,0.78770308 0 0 0 0,0.00196 0.78770308,0.78770308 0 0 0 0,0.00196 0.78770308,0.78770308 0 0 0 0,0.00196 0.78770308,0.78770308 0 0 0 0,0.00196 0.78770308,0.78770308 0 0 0 0,0.00196 0.78770308,0.78770308 0 0 0 0,0.00196 0.78770308,0.78770308 0 0 0 0,0.00196 0.78770308,0.78770308 0 0 0 0,0.00196 0.78770308,0.78770308 0 0 0 0,0.00196 0.78770308,0.78770308 0 0 0 0,0.00196 0.78770308,0.78770308 0 0 0 0,0.00196 c -0.01334,0.3031554 -0.03341,0.5254256 -0.01373,0.6752895 a 0.78770308,0.78770308 0 0 1 0.0078,0.080487 c 0.0051,0.1804113 0.0088,0.3961799 -0.0157,0.6399549 a 0.78770308,0.78770308 0 0 1 -0.03726,0.1767104 c 0.0063,-0.018206 0.01197,-0.029244 0.0157,-0.033361 0.0098,0.00192 -2.12e-4,0.096583 -0.05301,0.2846419 l -0.002,0.00589 c -0.01314,0.074935 -0.02097,0.2460417 -0.04122,0.4397235 9e-6,-6.455e-4 -7.3e-5,0.014282 0,0.015695 3.29e-4,0.00634 -4e-6,0.018697 0,0.066743 A 0.78762433,0.78762433 0 0 1 44.385285,10.007011 0.78762433,0.78762433 0 0 1 43.598102,9.2198268 c -2e-6,-0.00345 -8.77e-4,-0.038262 0,-0.1040456 a 0.78770308,0.78770308 0 0 1 0.0078,-0.088337 c 0.01609,-0.12193 0.0071,-0.3494247 0.07459,-0.6674374 a 0.78770308,0.78770308 0 0 1 0.01373,-0.060853 c -0.02001,0.067835 -0.03455,-0.028543 0.03731,-0.270902 0.0053,-0.0958 0.0035,-0.2118566 0,-0.3435347 0.0024,0.021788 0.0049,0.044462 0.0078,0.066743 l -0.0078,-0.082447 c -0.03559,-0.3397458 -0.01118,-0.6187306 0,-0.8382225 -0.0016,-0.4299563 0.107334,-0.784574 0.194343,-1.0757507 A 0.78762433,0.78762433 0 0 1 44.642342,5.189683 Z m -0.910856,2.8385724 c -0.0015,0.027966 -0.0033,0.053926 -0.0059,0.078522 l 0.03533,-0.1786397 c -0.01216,0.035586 -0.02031,0.069207 -0.02945,0.100118 z M 38.199709,5.8492675 a 0.78770308,0.78770308 0 0 1 0.740071,0.5300233 c 0.335202,0.9465866 0.685464,1.8465826 1.052196,2.4989649 0.248233,-0.1610476 0.537898,-0.3351164 0.973672,-0.3415703 0.123774,-0.020676 0.243246,-0.050347 0.392613,-0.021583 0.219925,0.042345 0.446803,0.1847018 0.584989,0.3553102 0.276354,0.3412161 0.264185,0.6329968 0.261087,0.8539269 -0.0061,0.4418625 -0.08934,0.8765035 -0.09031,0.8382235 a 0.78762433,0.78762433 0 0 1 -0.763625,0.800915 0.78762433,0.78762433 0 0 1 -0.808777,-0.763625 c -0.0031,-0.124158 0.01275,-0.144159 0.02158,-0.245384 -0.143662,0.105178 -0.281267,0.218336 -0.467201,0.333717 a 0.78770308,0.78770308 0 0 1 -0.985442,-0.125632 c -0.06564,-0.06838 -0.05215,-0.164899 -0.111905,-0.237533 -0.0217,0.158952 -0.05697,0.432943 -0.125637,0.771479 -0.03994,0.196996 -0.07606,0.382777 -0.1492,0.579101 -0.03653,0.09815 -0.03084,0.18885 -0.251272,0.400462 -0.02751,0.02645 -0.06313,0.05381 -0.104038,0.08246 -0.04091,0.02866 -0.146748,0.0873 -0.1492,0.08834 -0.0049,0.0022 -0.446678,0.05377 -0.451502,0.05301 -0.0024,-3.79e-4 -0.213555,-0.06562 -0.215939,-0.06674 -0.0024,-0.0011 -0.118379,-0.06813 -0.162933,-0.104037 -0.08911,-0.07182 -0.149043,-0.143138 -0.186495,-0.20023 a 0.78770308,0.78770308 0 0 1 -0.02945,-0.05301 c -0.380095,-0.694111 -0.516908,-1.474871 -0.718435,-2.269308 -0.108354,0.2596787 -0.214957,0.437476 -0.353349,0.751849 -0.02715,0.08274 -0.06441,0.171293 -0.13741,0.278753 -0.08952,0.131779 -0.277668,0.322761 -0.571248,0.371015 -0.293578,0.04826 -0.550045,-0.07747 -0.67529,-0.178628 C 34.592013,10.728363 34.541064,10.63798 34.495437,10.562564 34.33576,10.298568 34.25817,10.167022 34.2795,9.8401611 c 0.0096,0.042731 0.01942,0.086159 0.02945,0.1295617 L 34.29521,9.6870414 c -0.0069,0.054124 -0.01275,0.1035434 -0.0157,0.1491901 C 34.07835,8.9393633 33.98952,8.1851278 33.849612,7.3215552 a 0.78762433,0.78762433 0 0 1 0.645844,-0.8990776 0.78762433,0.78762433 0 0 1 0.904966,0.645844 c 0.05164,0.3186785 0.103704,0.5756714 0.147218,0.859817 0.04404,-0.060125 0.03987,-0.1097017 0.08834,-0.1688245 -0.0045,-0.0091 0.132583,-0.2224951 0.327832,-0.4377603 0.05578,-0.061504 0.115083,-0.1340347 0.253236,-0.2159342 0.138154,-0.081904 0.442057,-0.1957766 0.755775,-0.074598 0.281673,0.1088032 0.380145,0.3176572 0.445613,0.4672063 -0.0069,-0.3229043 -0.03312,-0.6016714 -0.0157,-0.9049667 a 0.78770308,0.78770308 0 0 1 0.675286,-0.7341808 0.78770308,0.78770308 0 0 1 0.121714,-0.00981 z m -2.098502,4.5091295 c 0.0061,-0.01874 0.01255,-0.03666 0.01766,-0.05496 l -0.03533,0.09619 c 0.0063,-0.01442 0.01158,-0.02735 0.01766,-0.04123 z m 8.00925,0.63799 a 0.79437562,0.83155922 0 0 1 0.793073,0.832334 0.79437562,0.83155922 0 0 1 -0.793073,0.832335 0.79437562,0.83155922 0 0 1 -0.795036,-0.832335 0.79437562,0.83155922 0 0 1 0.795036,-0.832334 z" />
    <path
       id="path2353"
       style="clip-rule:evenodd;fill:none;fill-opacity:1;fill-rule:evenodd;stroke:#4d425c;stroke-width:0.529167;stroke-linecap:round;stroke-linejoin:round;stroke-miterlimit:40;stroke-dasharray:none;stroke-opacity:1"
       d="m 40.538948,3.0282389 c -0.29769,-0.00106 -0.546242,0.00198 -0.692981,0.00775 -1.220593,0.048091 -2.826517,0.059946 -3.840075,0.098185 -0.467403,0.017637 -3.048907,-0.2759081 -3.873149,0.7875489 -0.86756,1.1193852 -0.300711,6.2041675 -0.37052,6.9236085 -0.04459,0.4598 -0.08361,2.724973 0.787032,3.65094 0.800154,0.85099 2.004117,0.915907 2.226221,0.936377 0.253382,0.02331 2.369672,-0.0013 2.537829,0.0041 0.0628,0.002 0.263983,0.0058 0.537952,0.01189 0.112572,0.639046 0.553326,1.662435 1.185974,2.082561 0.712347,0.473036 2.394373,0.685862 2.598808,0.58136 0.138939,-0.07104 0.869714,-0.08533 0.869714,-0.161231 -2e-6,-0.01157 -0.55771,-0.31122 -0.736389,-0.402559 -0.370261,-0.189241 -0.585439,-0.582762 -0.86558,-0.869198 -0.107353,-0.109727 -0.09303,-0.735137 -0.07855,-1.148767 0.484033,-0.0035 1.79696,0.03984 2.073258,0.03927 0.657752,-0.0013 2.59079,0.06369 3.570842,-0.828373 1.181997,-1.07594 0.880797,-3.217762 0.863513,-3.505729 -0.02274,-0.378815 0.02597,-2.8787595 -0.0098,-3.4452681 C 47.268006,6.9217821 47.558753,5.5744301 46.590775,4.1315308 45.697864,2.8005592 43.401037,3.0979612 43.218371,3.0871501 42.778082,3.0610985 41.432024,3.0314292 40.538948,3.0282389 Z" />
    <path
       id="rect1625"
       style="fill:#50fa7b;fill-opacity:1;stroke:#0f451d;stroke-width:0.593381;stroke-dasharray:none;stroke-opacity:1;paint-order:normal"
       d="m 50.52517,5.3570989 c -0.643062,0 -1.160653,0.5900216 -1.160653,1.3229166 v 1.0764201 h -1.07642 c -0.732895,0 -1.322916,0.5175908 -1.322916,1.1606533 0,0.643061 0.590021,1.1611691 1.322916,1.1611691 h 1.07642 v 1.076421 c 0,0.732895 0.517591,1.322917 1.160653,1.322917 0.643062,0 1.160653,-0.590022 1.160653,-1.322917 v -1.076421 h 1.076937 c 0.732895,0 1.322916,-0.5181081 1.322916,-1.1611691 0,-0.6430625 -0.590021,-1.1606533 -1.322916,-1.1606533 H 51.685823 V 6.6800155 c 0,-0.732895 -0.517591,-1.3229166 -1.160653,-1.3229166 z" />
    <path
       id="path2678"
       style="fill:#50fa7b;fill-opacity:1;stroke:#0f451d;stroke-width:0.593381;stroke-dasharray:none;stroke-opacity:1;paint-order:normal"
       d="m 57.791691,5.357099 c -0.643062,0 -1.160653,0.5900216 -1.160653,1.3229166 v 1.0764201 h -1.07642 c -0.732895,0 -1.322916,0.5175908 -1.322916,1.1606522 0,0.643062 0.590021,1.1611701 1.322916,1.1611701 h 1.07642 v 1.076421 c 0,0.732895 0.517591,1.322917 1.160653,1.322917 0.643062,0 1.160653,-0.590022 1.160653,-1.322917 v -1.076421 h 1.076937 c 0.732895,0 1.322916,-0.5181081 1.322916,-1.1611701 0,-0.6430614 -0.590021,-1.1606522 -1.322916,-1.1606522 H 58.952344 V 6.6800156 c 0,-0.732895 -0.517591,-1.3229166 -1.160653,-1.3229166 z" />
  </g>
</svg>
