<?xml version="1.0" encoding="UTF-8" standalone="no"?>
<svg
   width="16"
   height="16"
   version="1.1"
   id="svg1"
   sodipodi:docname="actionable_2d.svg"
   inkscape:version="1.4.3 (0d15f75042, 2025-12-25)"
   xmlns:inkscape="http://www.inkscape.org/namespaces/inkscape"
   xmlns:sodipodi="http://sodipodi.sourceforge.net/DTD/sodipodi-0.dtd"
   xmlns="http://www.w3.org/2000/svg"
   xmlns:svg="http://www.w3.org/2000/svg">
  <defs
     id="defs1" />
  <sodipodi:namedview
     id="namedview1"
     pagecolor="#ffffff"
     bordercolor="#ff0000"
     borderopacity="1"
     inkscape:showpageshadow="false"
     inkscape:pageopacity="0.0"
     inkscape:pagecheckerboard="0"
     inkscape:deskcolor="#d1d1d1"
     inkscape:zoom="11.313708"
     inkscape:cx="11.623068"
     inkscape:cy="14.363107"
     inkscape:window-width="2560"
     inkscape:window-height="1371"
     inkscape:window-x="0"
     inkscape:window-y="0"
     inkscape:window-maximized="1"
     inkscape:current-layer="svg1" />
  <path
     fill="#fc7f7f"
     d="M 1,1 V 5 H 3 V 3 H 5 V 1 Z m 10,0 v 2 h 2 v 2 h 2 V 1 Z M 1,11 v 4 H 5 V 13 H 3 v -2 z m 12,0 v 2 h -2 v 2 h 4 V 11 Z M 7.6833244,3.1469015 C 6.7334972,3.1840237 5.774968,3.4307748 5.0563712,4.123464 4.3377744,4.8161532 4.1012471,6.0560677 4.5934806,7.1781515 4.8154819,7.6831671 5.4045149,7.9130124 5.9098868,7.6918234 6.4149025,7.4698221 6.6447477,6.8807891 6.4235587,6.3754171 6.1659204,5.788111 6.258267,5.7429594 6.4450431,5.5629171 6.6318192,5.382875 7.1560545,5.1686091 7.7614494,5.1449484 8.3668443,5.1212877 9.0215131,5.2774252 9.396215,5.5043234 9.7709168,5.7312216 9.8621159,5.8531012 9.8239494,6.2054953 9.8072771,6.3594316 9.8015586,6.3569776 9.6696525,6.467214 9.5377464,6.5774504 9.2595654,6.7257907 8.9040275,6.9086203 8.5484895,7.0914498 8.1090421,7.3143786 7.708715,7.7230734 7.3083879,8.1317682 6.9954533,8.7601201 6.9548087,9.4730734 6.9237228,10.024211 7.345099,10.496292 7.896215,10.527761 8.4473526,10.558847 8.9194339,10.137471 8.9509025,9.5863547 8.9667851,9.3077543 9.0189438,9.2434665 9.1384025,9.1215109 9.2578612,8.9995553 9.4939224,8.8526619 9.81809,8.685964 10.142258,8.5192662 10.548476,8.3383654 10.952856,8.0004171 11.357236,7.6624687 11.739375,7.0930249 11.812231,6.420339 11.935331,5.283749 11.256345,4.2929433 10.431372,3.7933859 9.6063971,3.2938285 8.6331516,3.1097793 7.6833244,3.1469015 Z M 7.9294181,11.34612 c -0.5989952,-1e-6 -1.0848749,0.452671 -1.0859375,1.011719 -9.18e-5,0.55981 0.4861259,1.013672 1.0859375,1.013672 0.5998116,0 1.0860293,-0.453862 1.0859375,-1.013672 -0.00106,-0.559048 -0.4869423,-1.01172 -1.0859375,-1.011719 z"
     id="path1"
     sodipodi:nodetypes="ccccccccccccccccccccccccccccsscccssssssscccssssssscscs"
     style="fill:#8da5f3;fill-opacity:1" />
</svg>
