<?xml version="1.0" encoding="UTF-8" standalone="no"?>
<!-- Created with Inkscape (http://www.inkscape.org/) -->

<svg
   width="32"
   height="32"
   viewBox="0 0 8.4666666 8.466667"
   version="1.1"
   id="svg291"
   inkscape:version="1.2 (dc2aedaf03, 2022-05-15)"
   sodipodi:docname="icon_light.svg"
   xmlns:inkscape="http://www.inkscape.org/namespaces/inkscape"
   xmlns:sodipodi="http://sodipodi.sourceforge.net/DTD/sodipodi-0.dtd"
   xmlns="http://www.w3.org/2000/svg"
   xmlns:svg="http://www.w3.org/2000/svg">
  <sodipodi:namedview
     id="namedview293"
     pagecolor="#ffffff"
     bordercolor="#666666"
     borderopacity="1.0"
     inkscape:pageshadow="2"
     inkscape:pageopacity="0.0"
     inkscape:pagecheckerboard="0"
     inkscape:document-units="px"
     showgrid="false"
     width="1920px"
     units="px"
     borderlayer="true"
     inkscape:showpageshadow="false"
     inkscape:zoom="18.583334"
     inkscape:cx="-0.40358744"
     inkscape:cy="4.6278026"
     inkscape:window-width="2560"
     inkscape:window-height="1377"
     inkscape:window-x="2552"
     inkscape:window-y="-8"
     inkscape:window-maximized="1"
     inkscape:current-layer="layer1"
     inkscape:deskcolor="#d1d1d1" />
  <defs
     id="defs288" />
  <g
     inkscape:label="Layer 1"
     inkscape:groupmode="layer"
     id="layer1">
    <path
       id="path3615"
       style="clip-rule:evenodd;fill:#333333;fill-opacity:1;fill-rule:evenodd;stroke:none;stroke-width:0.00430708;stroke-linecap:round;stroke-linejoin:round;stroke-miterlimit:40"
       d="M 4.7260216,0.47365771 C 4.5742824,0.47311547 4.4476049,0.47471309 4.3728084,0.47766022 3.750649,0.50217362 2.9322566,0.50819918 2.4156266,0.52769045 2.177383,0.5366779 0.86156706,0.38686821 0.44143458,0.92893268 -7.7681947e-4,1.4995049 0.2879025,4.0913505 0.25231933,4.4580634 0.22958738,4.6924327 0.20977711,5.8472042 0.65356161,6.3191872 1.0614161,6.752954 1.6750358,6.7860415 1.7882468,6.7964755 c 0.1291542,0.011883 1.2080676,-7.874e-4 1.2937812,0.00199 0.032005,0.00103 0.1345191,0.0029 0.2741655,0.006 0.057376,0.3257339 0.2818924,0.8474953 0.6043648,1.0616407 0.3630976,0.2411168 1.2205953,0.349446 1.3247999,0.296179 0.070816,-0.036206 0.4432681,-0.043358 0.4432681,-0.08205 -6e-7,-0.00588 -0.2841501,-0.1585674 -0.3752267,-0.205125 C 5.1646708,7.7786507 5.0549272,7.5778609 4.9121339,7.4318587 4.8574105,7.3759315 4.8647325,7.0573409 4.8721098,6.8465056 5.1188311,6.8446774 5.7879135,6.8668065 5.9287477,6.8665126 6.2640165,6.8658363 7.2492954,6.8989625 7.7488469,6.4442581 8.3513337,5.8958302 8.1979226,4.8039614 8.1891127,4.6571792 8.1775241,4.4640899 8.2023597,3.189879 8.1841162,2.9011187 8.1560753,2.458195 8.3042819,1.7714708 7.8108845,1.0359972 7.3557512,0.35757538 6.1849543,0.50918651 6.0918463,0.50367586 5.8674229,0.49039679 5.1812401,0.47528439 4.7260216,0.47365771 Z M 6.7282302,1.5753229 a 0.40146687,0.40146687 0 0 1 0.133081,0.016008 0.40146687,0.40146687 0 0 1 0.2691629,0.5033038 c -0.039985,0.133805 -0.061318,0.2393843 -0.061037,0.3171919 a 0.40150701,0.40150701 0 0 0 0,10e-4 0.40150701,0.40150701 0 0 0 0,0.001 0.40150701,0.40150701 0 0 0 0,10e-4 0.40150701,0.40150701 0 0 0 0,10e-4 0.40150701,0.40150701 0 0 0 0,10e-4 0.40150701,0.40150701 0 0 0 0,0.001 0.40150701,0.40150701 0 0 0 0,10e-4 0.40150701,0.40150701 0 0 0 0,10e-4 0.40150701,0.40150701 0 0 0 0,10e-4 0.40150701,0.40150701 0 0 0 0,0.001 0.40150701,0.40150701 0 0 0 0,10e-4 0.40150701,0.40150701 0 0 0 0,10e-4 0.40150701,0.40150701 0 0 0 0,10e-4 0.40150701,0.40150701 0 0 0 0,0.001 0.40150701,0.40150701 0 0 0 0,10e-4 0.40150701,0.40150701 0 0 0 0,10e-4 0.40150701,0.40150701 0 0 0 0,10e-4 0.40150701,0.40150701 0 0 0 0,0.001 0.40150701,0.40150701 0 0 0 0,10e-4 c -0.00682,0.154524 -0.017026,0.2678193 -0.00701,0.3442077 a 0.40150701,0.40150701 0 0 1 0.00401,0.041026 c 0.00256,0.091959 0.00451,0.2019403 -0.008,0.326197 a 0.40150701,0.40150701 0 0 1 -0.01902,0.090054 c 0.00317,-0.00928 0.00611,-0.014906 0.008,-0.017005 0.00498,9.8e-4 -1.081e-4,0.04923 -0.027017,0.1450873 l -10e-4,0.003 c -0.00672,0.038196 -0.010686,0.1254121 -0.021013,0.2241353 4.4e-6,-3.29e-4 -3.76e-5,0.00728 0,0.008 1.678e-4,0.00323 -2.7e-6,0.00953 0,0.03402 A 0.40146687,0.40146687 0 0 1 6.5971513,4.0308054 0.40146687,0.40146687 0 0 1 6.1959093,3.6295631 c -5e-7,-0.00176 -4.47e-4,-0.019503 0,-0.053034 a 0.40150701,0.40150701 0 0 1 0.00401,-0.045027 c 0.00823,-0.06215 0.00359,-0.1781083 0.038024,-0.3402053 a 0.40150701,0.40150701 0 0 1 0.00701,-0.031018 c -0.010203,0.034577 -0.017614,-0.014549 0.01902,-0.1380838 0.00269,-0.048831 0.00175,-0.1079873 0,-0.1751061 0.00122,0.011106 0.00252,0.022663 0.00401,0.03402 l -0.00401,-0.042025 c -0.018139,-0.1731748 -0.00575,-0.3153786 0,-0.4272577 -7.902e-4,-0.2191568 0.054706,-0.3999121 0.099059,-0.5483303 a 0.40146687,0.40146687 0 0 1 0.3651979,-0.288173 z m -0.46428,1.4468735 c -7.825e-4,0.014255 -0.00174,0.027487 -0.003,0.040024 l 0.018013,-0.091056 c -0.00624,0.018139 -0.01035,0.035276 -0.01501,0.051031 z M 3.4442477,1.9115259 a 0.40150701,0.40150701 0 0 1 0.3772277,0.2701628 c 0.1708591,0.4824929 0.3493948,0.9412377 0.536324,1.2737692 0.1265289,-0.082089 0.2741772,-0.1708151 0.4962993,-0.1741048 0.063094,-0.010539 0.1239866,-0.025663 0.2001223,-0.011001 0.1120999,0.021584 0.2277438,0.094146 0.2981797,0.1811083 0.1408634,0.1739242 0.1346597,0.3226503 0.133081,0.4352625 -0.00315,0.2252257 -0.045535,0.4467701 -0.046026,0.4272581 A 0.40146687,0.40146687 0 0 1 5.0502173,4.7222229 0.40146687,0.40146687 0 0 1 4.6379684,4.3329877 c -0.00161,-0.063285 0.00649,-0.07348 0.011001,-0.1250761 -0.073226,0.053611 -0.14337,0.1112896 -0.2381439,0.1701013 A 0.40150701,0.40150701 0 0 1 3.9085279,4.3139763 c -0.033458,-0.034856 -0.02658,-0.084052 -0.057036,-0.1210748 -0.011064,0.081021 -0.02904,0.2206795 -0.064039,0.3932374 -0.020364,0.1004128 -0.038773,0.195109 -0.076045,0.2951783 -0.018621,0.050034 -0.015724,0.096256 -0.1280782,0.2041236 -0.014024,0.013478 -0.032175,0.027426 -0.053032,0.042025 -0.020847,0.014612 -0.0748,0.044496 -0.076045,0.045027 -0.0025,0.00106 -0.22768,0.027407 -0.2301387,0.027017 -0.00123,-1.936e-4 -0.108853,-0.033447 -0.1100685,-0.03402 -0.00121,-5.75e-4 -0.060338,-0.034734 -0.083051,-0.053034 -0.04542,-0.036609 -0.075966,-0.072959 -0.095059,-0.1020608 a 0.40150701,0.40150701 0 0 1 -0.01501,-0.027017 C 2.727169,4.6295896 2.6574326,4.2316214 2.5547107,3.8266819 2.4994848,3.959045 2.4451426,4.0496715 2.3746018,4.2099135 2.3607669,4.2520898 2.341774,4.2972242 2.3045606,4.3519988 2.2589266,4.419168 2.1630275,4.5165157 2.0133848,4.5411119 1.8637429,4.5657081 1.7330172,4.5016249 1.6691768,4.4500581 1.6053355,4.3984935 1.5793623,4.3524228 1.5561093,4.3139771 1.4747214,4.1794139 1.4351708,4.1123622 1.4460428,3.9457551 c 0.0049,0.021781 0.00985,0.043917 0.015006,0.06604 l -0.00701,-0.144088 c -0.00352,0.027588 -0.00645,0.052778 -0.008,0.076045 C 1.3435004,3.4866058 1.2982227,3.1021578 1.2269088,2.6619787 A 0.40146687,0.40146687 0 0 1 1.5561075,2.203702 0.40146687,0.40146687 0 0 1 2.0173862,2.5329008 c 0.026316,0.1624364 0.052856,0.2934305 0.075044,0.4382648 0.022455,-0.030647 0.020322,-0.055917 0.045027,-0.086053 -0.00231,-0.00464 0.067579,-0.1134099 0.1671013,-0.2231346 0.028434,-0.03135 0.058658,-0.06832 0.1290796,-0.1100657 0.070417,-0.041748 0.2253249,-0.099791 0.3852325,-0.038024 0.1435737,0.055459 0.1937675,0.1619158 0.2271373,0.2381438 -0.00348,-0.1645904 -0.016879,-0.3066832 -0.008,-0.4612785 a 0.40150701,0.40150701 0 0 1 0.3442058,-0.3742257 0.40150701,0.40150701 0 0 1 0.062036,-0.005 z M 2.374602,4.2099135 c 0.00313,-0.00955 0.00636,-0.018684 0.00901,-0.028016 l -0.018013,0.049031 c 0.00317,-0.00735 0.0059,-0.01394 0.00901,-0.021015 z M 6.4570664,4.5351096 A 0.40490813,0.42386131 0 0 1 6.8613108,4.9593658 0.40490813,0.42386131 0 0 1 6.4570664,5.3836222 0.40490813,0.42386131 0 0 1 6.0518221,4.9593658 0.40490813,0.42386131 0 0 1 6.4570664,4.5351096 Z" />
  </g>
</svg>
