<?xml version="1.0" encoding="UTF-8" standalone="no"?>
<!-- Created with Inkscape (http://www.inkscape.org/) -->

<svg
   width="16"
   height="16"
   viewBox="0 0 4.2333333 4.2333335"
   version="1.1"
   id="svg291"
   inkscape:version="1.1.1 (3bf5ae0d25, 2021-09-20)"
   sodipodi:docname="icon_light_1.svg"
   xmlns:inkscape="http://www.inkscape.org/namespaces/inkscape"
   xmlns:sodipodi="http://sodipodi.sourceforge.net/DTD/sodipodi-0.dtd"
   xmlns="http://www.w3.org/2000/svg"
   xmlns:svg="http://www.w3.org/2000/svg">
  <sodipodi:namedview
     id="namedview293"
     pagecolor="#ffffff"
     bordercolor="#666666"
     borderopacity="1.0"
     inkscape:pageshadow="2"
     inkscape:pageopacity="0.0"
     inkscape:pagecheckerboard="0"
     inkscape:document-units="px"
     showgrid="false"
     width="1920px"
     units="px"
     borderlayer="true"
     inkscape:showpageshadow="false"
     inkscape:zoom="37.166667"
     inkscape:cx="7.7488789"
     inkscape:cy="10.318386"
     inkscape:window-width="2560"
     inkscape:window-height="1377"
     inkscape:window-x="2552"
     inkscape:window-y="-8"
     inkscape:window-maximized="1"
     inkscape:current-layer="layer1" />
  <defs
     id="defs288" />
  <g
     inkscape:label="Layer 1"
     inkscape:groupmode="layer"
     id="layer1">
    <path
       id="path3615"
       style="clip-rule:evenodd;fill:#333333;fill-opacity:1;fill-rule:evenodd;stroke:none;stroke-width:0.00430709;stroke-linecap:round;stroke-linejoin:round;stroke-miterlimit:40"
       d="M 2.3518671,0.37393919 C 2.2795886,0.3736809 2.2192478,0.3744419 2.1836197,0.37584572 1.8872641,0.38752228 1.4974361,0.39039246 1.2513477,0.39967681 1.1378642,0.40395784 0.51109651,0.33259841 0.31097318,0.59080208 0.10033291,0.86258496 0.23784065,2.0971688 0.22089118,2.2718466 c -0.010828,0.111638 -0.0202643,0.6616948 0.19112529,0.8865163 0.19427491,0.2066178 0.48656275,0.2223785 0.540489,0.2273486 0.0615205,0.00566 0.57544353,-3.751e-4 0.61627183,9.499e-4 0.015245,4.889e-4 0.064076,0.00138 0.1305943,0.00286 0.02733,0.1551581 0.1342749,0.4036907 0.2878794,0.5056954 0.1729557,0.1148521 0.5814109,0.166453 0.6310471,0.1410801 0.033732,-0.017246 0.2111436,-0.020653 0.2111436,-0.039083 -3e-7,-0.0028 -0.1353503,-0.075531 -0.1787332,-0.097708 C 2.5608106,3.8535548 2.508536,3.7579118 2.4405187,3.688366 2.4144521,3.661726 2.4179398,3.5099705 2.4214539,3.4095425 c 0.1175217,-8.708e-4 0.4362283,0.00967 0.5033124,0.00953 0.1596999,-3.221e-4 0.6290216,0.015457 0.8669749,-0.2011341 0.2869849,-0.2612348 0.21391,-0.7813289 0.2097135,-0.8512462 -0.00552,-0.091975 0.00631,-0.6989248 -0.00238,-0.8364711 C 3.9857179,1.3192415 4.0563137,0.99213154 3.8212918,0.64180055 3.6044964,0.31864524 3.0468062,0.39086276 3.0024557,0.38823785 2.8955552,0.38191258 2.5687031,0.37471403 2.3518671,0.37393919 Z m 0.9537198,0.52476045 a 0.19123227,0.19123227 0 0 1 0.063391,0.007625 0.19123227,0.19123227 0 0 1 0.1282114,0.23974066 c -0.019046,0.063736 -0.029208,0.114027 -0.029074,0.1510894 a 0.19125139,0.19125139 0 0 0 0,4.767e-4 0.19125139,0.19125139 0 0 0 0,4.765e-4 0.19125139,0.19125139 0 0 0 0,4.767e-4 0.19125139,0.19125139 0 0 0 0,4.767e-4 0.19125139,0.19125139 0 0 0 0,4.765e-4 0.19125139,0.19125139 0 0 0 0,4.766e-4 0.19125139,0.19125139 0 0 0 0,4.768e-4 0.19125139,0.19125139 0 0 0 0,4.765e-4 0.19125139,0.19125139 0 0 0 0,4.766e-4 0.19125139,0.19125139 0 0 0 0,4.767e-4 0.19125139,0.19125139 0 0 0 0,4.766e-4 0.19125139,0.19125139 0 0 0 0,4.766e-4 0.19125139,0.19125139 0 0 0 0,4.767e-4 0.19125139,0.19125139 0 0 0 0,4.765e-4 0.19125139,0.19125139 0 0 0 0,4.767e-4 0.19125139,0.19125139 0 0 0 0,4.767e-4 0.19125139,0.19125139 0 0 0 0,4.765e-4 0.19125139,0.19125139 0 0 0 0,4.766e-4 0.19125139,0.19125139 0 0 0 0,4.767e-4 c -0.00325,0.073605 -0.00811,0.1275714 -0.00334,0.1639578 a 0.19125139,0.19125139 0 0 1 0.00191,0.019542 c 0.00122,0.043803 0.00215,0.096191 -0.00381,0.1553787 a 0.19125139,0.19125139 0 0 1 -0.00906,0.042896 c 0.00151,-0.00442 0.00291,-0.0071 0.00381,-0.0081 0.00237,4.668e-4 -5.15e-5,0.02345 -0.012869,0.06911 l -4.766e-4,0.00143 c -0.0032,0.018194 -0.00509,0.059738 -0.010009,0.1067632 2.1e-6,-1.567e-4 -1.79e-5,0.00347 0,0.00381 7.99e-5,0.00154 -1.3e-6,0.00454 0,0.016205 A 0.19123227,0.19123227 0 0 1 3.2431496,2.0683291 0.19123227,0.19123227 0 0 1 3.0520244,1.8772038 c -2e-7,-8.384e-4 -2.129e-4,-0.00929 0,-0.025262 a 0.19125139,0.19125139 0 0 1 0.00191,-0.021448 c 0.00392,-0.029604 0.00171,-0.084839 0.018112,-0.1620513 a 0.19125139,0.19125139 0 0 1 0.00334,-0.014775 c -0.00486,0.01647 -0.00839,-0.00693 0.00906,-0.065774 0.00128,-0.02326 8.317e-4,-0.051438 0,-0.083409 5.809e-4,0.00529 0.0012,0.010795 0.00191,0.016205 l -0.00191,-0.020018 c -0.00864,-0.082489 -0.00274,-0.1502255 0,-0.2035173 C 3.08407,1.1927624 3.110505,1.1066625 3.1316315,1.0359659 A 0.19123227,0.19123227 0 0 1 3.3055869,0.89869964 Z M 3.0844346,1.5878945 c -3.727e-4,0.00679 -8.301e-4,0.013093 -0.00143,0.019065 l 0.00858,-0.043373 c -0.00297,0.00864 -0.00493,0.016803 -0.00715,0.024308 z m -1.3431198,-0.52905 a 0.19125139,0.19125139 0 0 1 0.1796863,0.1286877 c 0.081386,0.2298277 0.1664286,0.4483434 0.2554693,0.6067394 0.06027,-0.039102 0.1305999,-0.081365 0.2364042,-0.082932 0.030054,-0.00502 0.059059,-0.012224 0.095325,-0.00524 0.053397,0.010281 0.1084821,0.044845 0.1420331,0.086268 0.067098,0.082846 0.064143,0.1536893 0.063391,0.2073303 -0.0015,0.1072826 -0.02169,0.2128117 -0.021924,0.2035175 A 0.19123227,0.19123227 0 0 1 2.5062925,2.3976747 0.19123227,0.19123227 0 0 1 2.3099244,2.2122688 c -7.656e-4,-0.030145 0.00309,-0.035001 0.00524,-0.059578 -0.03488,0.025537 -0.068292,0.053011 -0.113436,0.081025 A 0.19125139,0.19125139 0 0 1 1.9624672,2.203213 C 1.9465302,2.18661 1.9498062,2.163176 1.9352992,2.145541 c -0.00527,0.038593 -0.013833,0.1051171 -0.030504,0.1873123 -0.0097,0.04783 -0.018469,0.092937 -0.036223,0.1406034 -0.00887,0.023833 -0.00749,0.04585 -0.061008,0.097231 -0.00668,0.00642 -0.015326,0.013064 -0.025261,0.020018 -0.00993,0.00696 -0.03563,0.021195 -0.036223,0.021448 -0.00119,5.073e-4 -0.1084517,0.013055 -0.1096229,0.012869 -5.839e-4,-9.23e-5 -0.05185,-0.015932 -0.052429,-0.016205 -5.783e-4,-2.739e-4 -0.028741,-0.016545 -0.03956,-0.025262 -0.021635,-0.017438 -0.036185,-0.034753 -0.04528,-0.048615 a 0.19125139,0.19125139 0 0 1 -0.00715,-0.012869 C 1.3997459,2.3535503 1.3665281,2.1639846 1.3175982,1.9710982 c -0.026306,0.063049 -0.052191,0.1062175 -0.085792,0.1825462 -0.00659,0.02009 -0.015637,0.041589 -0.033363,0.06768 -0.021737,0.031995 -0.067417,0.078365 -0.1386969,0.090081 C 0.9884668,2.3231214 0.92619772,2.2925964 0.8957884,2.2680334 0.8653786,2.2434714 0.8530067,2.2215264 0.8419305,2.2032134 0.8031627,2.1391164 0.7843234,2.1071774 0.7895021,2.0278168 c 0.002333,0.010375 0.004694,0.020919 0.007148,0.031457 l -0.003339,-0.068634 c -0.001678,0.013141 -0.003071,0.02514 -0.003809,0.036223 C 0.7406577,1.8091084 0.71909037,1.6259828 0.68512117,1.4163106 A 0.19123227,0.19123227 0 0 1 0.84192964,1.1980179 0.19123227,0.19123227 0 0 1 1.0616523,1.3548264 c 0.012535,0.077374 0.025177,0.1397709 0.035746,0.2087604 0.010696,-0.014598 0.00968,-0.026635 0.021448,-0.04099 -0.0011,-0.00221 0.03219,-0.054021 0.079596,-0.1062866 0.013544,-0.014933 0.027941,-0.032543 0.061485,-0.052428 0.033542,-0.019886 0.1073299,-0.047534 0.1834993,-0.018112 0.068389,0.026417 0.092298,0.077126 0.1081932,0.113436 -0.00166,-0.0784 -0.00804,-0.1460836 -0.00381,-0.2197226 a 0.19125139,0.19125139 0 0 1 0.1639569,-0.1782564 0.19125139,0.19125139 0 0 1 0.02955,-0.00238 z M 1.2318063,2.1536444 c 0.00149,-0.00455 0.00303,-0.0089 0.00429,-0.013345 l -0.00858,0.023355 c 0.00151,-0.0035 0.00281,-0.00664 0.00429,-0.01001 z M 3.1764224,2.3085463 A 0.19287146,0.2018995 0 0 1 3.3689777,2.5106339 0.19287146,0.2018995 0 0 1 3.1764224,2.7127216 0.19287146,0.2018995 0 0 1 2.9833908,2.5106339 0.19287146,0.2018995 0 0 1 3.1764224,2.3085463 Z" />
  </g>
</svg>
