<?xml version="1.0" encoding="UTF-8" standalone="no"?>
<!-- Created with Inkscape (http://www.inkscape.org/) -->

<svg
   width="1920"
   height="1080"
   viewBox="0 0 1920 1080"
   version="1.1"
   id="svg1"
   inkscape:version="1.4.3 (0d15f75042, 2025-12-25)"
   xml:space="preserve"
   sodipodi:docname="hero.svg"
   inkscape:export-filename="hero.png"
   inkscape:export-xdpi="96"
   inkscape:export-ydpi="96"
   xmlns:inkscape="http://www.inkscape.org/namespaces/inkscape"
   xmlns:sodipodi="http://sodipodi.sourceforge.net/DTD/sodipodi-0.dtd"
   xmlns:xlink="http://www.w3.org/1999/xlink"
   xmlns="http://www.w3.org/2000/svg"
   xmlns:svg="http://www.w3.org/2000/svg"><sodipodi:namedview
     id="namedview1"
     pagecolor="#ffffff"
     bordercolor="#ff0000"
     borderopacity="1"
     inkscape:showpageshadow="false"
     inkscape:pageopacity="0.0"
     inkscape:pagecheckerboard="0"
     inkscape:deskcolor="#d1d1d1"
     inkscape:document-units="px"
     inkscape:zoom="0.5"
     inkscape:cx="305"
     inkscape:cy="541"
     inkscape:window-width="2560"
     inkscape:window-height="1371"
     inkscape:window-x="0"
     inkscape:window-y="0"
     inkscape:window-maximized="1"
     inkscape:current-layer="layer1" /><defs
     id="defs1"><linearGradient
       id="linearGradient3"
       inkscape:collect="always"><stop
         style="stop-color:#282a36;stop-opacity:1;"
         offset="0.18809077"
         id="stop3" /><stop
         style="stop-color:#282a36;stop-opacity:0;"
         offset="1"
         id="stop4" /></linearGradient><linearGradient
       inkscape:collect="always"
       xlink:href="#linearGradient17"
       id="linearGradient18"
       x1="277.08563"
       y1="135.67198"
       x2="525.26117"
       y2="135.67198"
       gradientUnits="userSpaceOnUse" /><linearGradient
       id="linearGradient17"
       inkscape:collect="always"><stop
         style="stop-color:#522493;stop-opacity:1;"
         offset="0"
         id="stop17" /><stop
         style="stop-color:#7e49ca;stop-opacity:1;"
         offset="0.16787882"
         id="stop19" /><stop
         style="stop-color:#7e49ca;stop-opacity:1;"
         offset="0.84265292"
         id="stop20" /><stop
         style="stop-color:#522493;stop-opacity:1;"
         offset="1"
         id="stop18" /></linearGradient><filter
       inkscape:collect="always"
       style="color-interpolation-filters:sRGB"
       id="filter1"
       x="-0.0077200289"
       y="-0.013724496"
       width="1.0154401"
       height="1.027449"><feGaussianBlur
         inkscape:collect="always"
         stdDeviation="14.303427"
         id="feGaussianBlur1" /></filter><radialGradient
       inkscape:collect="always"
       xlink:href="#linearGradient3"
       id="radialGradient4"
       cx="957.87842"
       cy="466.914"
       fx="957.87842"
       fy="466.914"
       r="960"
       gradientTransform="matrix(0.95284078,-0.00318182,0.00298695,0.89448394,43.150249,37.41657)"
       gradientUnits="userSpaceOnUse" /></defs><g
     inkscape:label="Layer 1"
     inkscape:groupmode="layer"
     id="layer1"><image
       width="4446.6445"
       height="2501.2375"
       preserveAspectRatio="none"
       xlink:href="screenshot.jpg"
       id="image1"
       x="-1129.6743"
       y="-612.78876"
       transform="matrix(1.1288989,-0.30248755,0.30248755,1.1288989,-48.08828,-112.19115)"
       style="mix-blend-mode:normal;filter:url(#filter1)" /><rect
       style="opacity:1;fill:url(#radialGradient4);fill-opacity:1;stroke:none;stroke-width:1.85399;stroke-linecap:round;stroke-linejoin:round"
       id="rect3"
       width="1920"
       height="1080"
       x="0"
       y="0" /><g
       id="g3"
       transform="matrix(0.81138967,0,0,0.81138967,181.06581,127.72241)"><g
         id="g23"
         transform="matrix(1.9231947,0,0,1.9231947,188.46543,124.15012)"><path
           id="path20"
           style="fill:#000000;fill-opacity:0.0920511;stroke-width:0.529167;stroke-linecap:round;stroke-linejoin:round"
           d="m 482.15145,14.221954 c 0,0 -56.88252,0.530443 -85.31779,1.061951 -25.56491,0.477856 -76.63046,1.738395 -76.63046,1.738395 -23.00096,0.397744 -43.62675,20.160582 -43.10797,43.159123 l 0.1478,6.557739 c -3e-5,3.41e-4 3e-5,6.92e-4 0,0.001 -0.12967,1.415363 -0.18039,2.84734 -0.1478,4.292245 l 2.64584,117.295173 c 0.57777,25.61399 21.30091,40.20986 40.46213,39.88903 l 34.95755,-0.58549 c 2.18027,22.3665 16.93118,34.70343 37.17861,39.69009 8.15494,2.00845 22.08782,1.21725 31.81718,-3.70004 -0.0435,-4.28506 -0.0487,-6.8538 0,-10.85101 -15.52433,-6.50088 -21.15757,-14.11417 -22.59862,-22.3635 0.14854,-1.17935 0.3295,-2.36697 0.52865,-3.56102 l 85.35655,-1.42937 c 23.00117,-0.38516 36.54561,-21.21406 36.75796,-44.21746 l 1.05833,-114.649334 c 0.009,-0.934255 -0.0165,-1.860808 -0.0744,-2.778641 -2e-5,-3.45e-4 2e-5,-6.89e-4 0,-10e-4 l 0.0744,-8.071342 C 525.47176,32.695081 505.15517,14.397276 482.15145,14.221954 Z"
           sodipodi:nodetypes="cscccccsccsccccsscscsc" /><path
           id="path15"
           style="fill:url(#linearGradient18);fill-opacity:1;stroke-width:0.529167;stroke-linecap:round;stroke-linejoin:round"
           d="m 482.15145,8.6092937 c 0,0 -56.88252,0.5304434 -85.31779,1.0619507 C 371.26875,10.149101 320.2032,11.40964 320.2032,11.40964 297.20224,11.807384 276.57645,31.570222 277.09523,54.568763 l 0.1478,6.557739 c -3e-5,3.41e-4 3e-5,6.92e-4 0,10e-4 -0.12967,1.415363 -0.18039,2.84734 -0.1478,4.292245 l 2.64584,117.295173 c 0.57777,25.61399 21.30091,40.20986 40.46213,39.88903 l 34.95755,-0.58549 c 2.18027,22.3665 16.93118,34.70343 37.17861,39.69009 8.15494,2.00845 22.08782,1.21725 31.81718,-3.70004 -0.0435,-4.28506 -0.0487,-6.8538 0,-10.85101 -15.52433,-6.50088 -21.15757,-14.11417 -22.59862,-22.3635 0.14854,-1.17935 0.3295,-2.36697 0.52865,-3.56102 l 85.35655,-1.42937 c 23.00117,-0.38516 36.54561,-21.21406 36.75796,-44.21746 l 1.05833,-114.649334 c 0.009,-0.934255 -0.0165,-1.860808 -0.0744,-2.778641 -2e-5,-3.45e-4 2e-5,-6.89e-4 0,-10e-4 l 0.0744,-8.071342 C 525.47176,27.082421 505.15517,8.7846155 482.15145,8.6092937 Z"
           sodipodi:nodetypes="cscccccsccsccccsscscsc" /><path
           id="path1"
           style="fill:#bd93f9;fill-opacity:1;stroke-width:0.529167;stroke-linecap:round;stroke-linejoin:round"
           d="m 482.15145,8.6092937 c 0,0 -56.88252,0.5304434 -85.31779,1.0619507 C 371.26875,10.149101 320.2032,11.40964 320.2032,11.40964 297.20224,11.807384 276.57645,31.570222 277.09523,54.568763 l 2.64584,117.295167 c 0.57777,25.61399 21.30091,40.20987 40.46213,39.88904 l 34.95755,-0.5855 c 2.18027,22.3665 16.93118,34.70343 37.17861,39.69009 8.15494,2.00845 22.08782,1.21726 31.81718,-3.70003 -24.24056,-10.15083 -24.36517,-23.01439 -22.06997,-36.77554 l 85.35655,-1.42937 c 23.00117,-0.38516 36.54561,-21.21405 36.75796,-44.21745 L 525.25941,50.085832 C 525.47176,27.082421 505.15517,8.7846155 482.15145,8.6092937 Z" /><path
           id="path16"
           style="fill:#ffffff;fill-opacity:0.467282;stroke-width:0.529167;stroke-linecap:round;stroke-linejoin:round"
           d="m 525.25631,49.113798 -1.05523,114.298452 c -0.21235,23.0034 -13.75679,43.8323 -36.75796,44.21746 l -85.35655,1.42937 c -0.57109,3.42407 -0.99243,6.79245 -0.92966,10.07742 0.0526,-2.8644 0.43497,-5.78855 0.92966,-8.75451 l 85.35655,-1.42937 c 23.00117,-0.38516 36.54561,-21.21405 36.75796,-44.21745 l 1.05833,-114.649338 c 0.003,-0.324939 0.002,-0.64901 -0.003,-0.972034 z m -248.16469,3.943946 c -0.009,0.501993 -0.008,1.00573 0.004,1.511019 l 2.64584,117.295167 c 0.57777,25.61399 21.30091,40.20987 40.46213,39.88904 l 34.95755,-0.5855 c 2.18027,22.3665 16.93118,34.70343 37.17861,39.69009 8.15494,2.00845 22.08782,1.21726 31.81718,-3.70003 -0.49748,-0.20833 -0.98457,-0.4178 -1.46192,-0.62839 -9.62131,4.29368 -22.60067,4.91535 -30.35526,3.0055 -20.24743,-4.98666 -34.99834,-17.32358 -37.17861,-39.69008 l -34.95755,0.58549 C 301.04198,210.75088 280.31884,196.155 279.74107,170.54101 L 277.09523,53.245846 c -0.001,-0.06272 -0.003,-0.125429 -0.004,-0.188102 z" /><path
           id="rect29"
           style="fill:#ffffff;fill-opacity:0.0770887;stroke:none;stroke-width:6.31477;stroke-linecap:round;stroke-linejoin:round;stroke-dasharray:none;stroke-opacity:1"
           d="m 472.08312,10.012219 c -5.86802,0.06965 -13.0456,0.15735 -20.72166,0.258177 l 3.9e-4,231.551234 20.72086,-0.40056 z m -32.27941,0.415329 c -13.5771,0.190615 -27.44897,0.409765 -37.61107,0.629198 -13.75554,0.297028 -34.92093,0.858584 -51.37262,1.309203 l 5e-5,136.234591 24.15334,47.8846 c 14.77085,29.28344 43.58179,45.97033 62.56523,45.60353 l 2.26498,-0.0437 z"
           transform="matrix(1,0,-0.48467961,0.87469176,0,0)" /><path
           id="path23"
           style="baseline-shift:baseline;display:inline;overflow:visible;opacity:1;vector-effect:none;fill:#1e2760;fill-opacity:0.131611;stroke-width:1.04511;stroke-linecap:round;stroke-linejoin:round;enable-background:accumulate;stop-color:#000000;stop-opacity:1"
           d="m 387.47633,57.907899 a 12.84523,13.118908 0 0 0 -1.78226,0.03875 12.84523,13.118908 0 0 0 -11.62823,11.871611 l -1.59147,17.936501 a 12.84523,13.118908 0 0 0 -22.09251,1.219307 L 344.591,102.10812 341.01366,79.771399 A 12.843945,13.117596 0 0 0 326.26501,68.943351 12.843945,13.117596 0 0 0 315.66124,84.004593 l 10.45627,65.309977 a 12.84523,13.118908 0 0 0 24.38726,3.26932 l 7.9221,-17.96325 7.69337,32.44431 a 12.84523,13.118908 0 0 0 25.27385,-1.90375 l 1.92495,-21.67847 0.61404,2.24868 a 12.84523,13.118908 0 0 0 20.4182,6.69965 l 5.47182,-4.49244 0.0583,2.32072 a 12.843945,13.117596 0 0 0 13.1732,12.77109 12.843945,13.117596 0 0 0 12.5052,-13.45388 l -0.73321,-28.79948 a 12.84523,13.118908 0 0 0 -20.88743,-9.88109 l -10.49901,8.6203 -14.21104,-52.037301 a 12.84523,13.118908 0 0 0 -11.75274,-9.57108 z m 89.36512,1.96432 A 12.312808,12.575142 0 0 0 464.8044,71.002093 l -6.79876,60.037587 a 12.312808,12.575142 0 0 0 10.81592,13.93635 12.312808,12.575142 0 0 0 13.64616,-11.04636 l 6.80089,-60.039223 a 12.312808,12.575142 0 0 0 -10.81859,-13.936905 12.312808,12.575142 0 0 0 -1.60857,-0.08133 z m -12.94983,92.458421 a 12.210863,12.471025 0 0 0 -12.21126,12.47089 12.210863,12.471025 0 0 0 12.21126,12.47089 12.210863,12.471025 0 0 0 12.21074,-12.47089 12.210863,12.471025 0 0 0 -12.21074,-12.47089 z" /><path
           id="path19"
           style="baseline-shift:baseline;display:inline;overflow:visible;opacity:1;vector-effect:none;fill:#ffffff;stroke-width:1.05618;stroke-linecap:round;stroke-linejoin:round;enable-background:accumulate;stop-color:#000000;stop-opacity:1"
           d="m 387.15791,54.203732 a 13.118908,13.118908 0 0 0 -1.82023,0.03875 13.118908,13.118908 0 0 0 -11.87598,11.871611 l -1.62538,17.936501 a 13.118908,13.118908 0 0 0 -22.56321,1.219307 l -5.91424,13.134042 -3.65356,-22.336711 A 13.117596,13.117596 0 0 0 324.64243,65.239184 13.117596,13.117596 0 0 0 313.81274,80.300426 l 10.67905,65.309974 a 13.118908,13.118908 0 0 0 24.90685,3.26932 l 8.09089,-17.96325 7.85728,32.44431 a 13.118908,13.118908 0 0 0 25.81233,-1.90375 l 1.96596,-21.67847 0.62712,2.24868 a 13.118908,13.118908 0 0 0 20.85323,6.69965 l 5.5884,-4.49244 0.0595,2.32072 a 13.117596,13.117596 0 0 0 13.45387,12.77109 13.117596,13.117596 0 0 0 12.77163,-13.45388 l -0.74883,-28.79948 a 13.118908,13.118908 0 0 0 -21.33245,-9.88109 l -10.7227,8.6203 -14.51382,-52.037298 a 13.118908,13.118908 0 0 0 -12.00314,-9.57108 z m 91.26912,1.96432 a 12.575142,12.575142 0 0 0 -12.29351,11.129874 l -6.94362,60.037584 a 12.575142,12.575142 0 0 0 11.04636,13.93635 12.575142,12.575142 0 0 0 13.93691,-11.04636 l 6.94579,-60.03922 a 12.575142,12.575142 0 0 0 -11.04909,-13.936905 12.575142,12.575142 0 0 0 -1.64284,-0.08133 z m -13.22574,92.458418 a 12.471025,12.471025 0 0 0 -12.47143,12.47089 12.471025,12.471025 0 0 0 12.47143,12.47089 12.471025,12.471025 0 0 0 12.4709,-12.47089 12.471025,12.471025 0 0 0 -12.4709,-12.47089 z" /></g><text
         xml:space="preserve"
         style="font-weight:bold;font-size:94.0268px;font-family:'Noto Sans';-inkscape-font-specification:'Noto Sans Bold';writing-mode:lr-tb;direction:ltr;opacity:1;fill:#ffffff;fill-opacity:1;stroke:none;stroke-width:15.6711;stroke-linecap:round;stroke-linejoin:round"
         x="525.97229"
         y="757.0163"
         id="text2"><tspan
           sodipodi:role="line"
           id="tspan2"
           x="525.97229"
           y="757.0163"
           style="fill:#ffffff;fill-opacity:1;stroke-width:15.6711">Dialogue Manager</tspan></text><text
         xml:space="preserve"
         style="font-weight:bold;font-size:82.6592px;font-family:'Noto Sans';-inkscape-font-specification:'Noto Sans Bold';writing-mode:lr-tb;direction:ltr;opacity:1;fill:#a6a6a6;fill-opacity:1;stroke:none;stroke-width:13.7765;stroke-linecap:round;stroke-linejoin:round"
         x="671.02332"
         y="874.44379"
         id="text3"><tspan
           sodipodi:role="line"
           id="tspan3"
           x="671.02332"
           y="874.44379"
           style="fill:#a6a6a6;fill-opacity:1;stroke-width:13.7765">for Godot 4.6+</tspan></text></g></g></svg>
