<?xml version="1.0" encoding="UTF-8" standalone="no"?>
<!-- Created with Inkscape (http://www.inkscape.org/) -->

<svg
   width="250"
   height="60"
   viewBox="0 0 66.145835 15.875"
   version="1.1"
   id="svg291"
   inkscape:version="1.2 (dc2aedaf03, 2022-05-15)"
   inkscape:export-xdpi="96"
   inkscape:export-ydpi="96"
   sodipodi:docname="discord.svg"
   xmlns:inkscape="http://www.inkscape.org/namespaces/inkscape"
   xmlns:sodipodi="http://sodipodi.sourceforge.net/DTD/sodipodi-0.dtd"
   xmlns="http://www.w3.org/2000/svg"
   xmlns:svg="http://www.w3.org/2000/svg">
  <sodipodi:namedview
     id="namedview293"
     pagecolor="#ffffff"
     bordercolor="#666666"
     borderopacity="1.0"
     inkscape:pageshadow="2"
     inkscape:pageopacity="0.0"
     inkscape:pagecheckerboard="0"
     inkscape:document-units="px"
     showgrid="false"
     width="1920px"
     units="px"
     borderlayer="true"
     inkscape:showpageshadow="false"
     inkscape:snap-global="false"
     inkscape:zoom="4.0000001"
     inkscape:cx="143.625"
     inkscape:cy="70.499998"
     inkscape:window-width="2560"
     inkscape:window-height="1377"
     inkscape:window-x="-8"
     inkscape:window-y="-8"
     inkscape:window-maximized="1"
     inkscape:current-layer="layer1"
     inkscape:deskcolor="#d1d1d1" />
  <defs
     id="defs288">
    <clipPath
       clipPathUnits="userSpaceOnUse"
       id="clipPath53738">
      <circle
         style="fill:#ffbc05;fill-opacity:1;stroke-width:2.304;stroke-linecap:round;stroke-linejoin:round;paint-order:markers stroke fill"
         id="circle53740"
         cx="-57.216148"
         cy="44.714584"
         r="37.769272" />
    </clipPath>
  </defs>
  <g
     inkscape:label="Layer 1"
     inkscape:groupmode="layer"
     id="layer1">
    <rect
       style="font-size:5.19048px;line-height:1.25;font-family:'Baloo Tammudu 2';-inkscape-font-specification:'Baloo Tammudu 2, ';fill:#3d4f70;fill-opacity:1;stroke-width:4.44081;stroke-linecap:round;stroke-linejoin:round;stroke-dashoffset:0.7;paint-order:markers stroke fill"
       id="rect1251"
       width="66.145836"
       height="15.875"
       x="0"
       y="-2.220446e-16" />
    <path
       style="fill:#ffffff;fill-opacity:1;stroke:none;stroke-width:1.03217;stroke-linecap:round;stroke-linejoin:round;stroke-miterlimit:4;stroke-dasharray:none;stroke-opacity:1;paint-order:markers stroke fill"
       d="m 8.5805554,3.6351255 c -0.1641467,5.456e-4 -1.5221052,0.039193 -2.9546638,1.1036799 0,0 -1.5280566,2.7484201 -1.5280566,6.1335116 0,0 0.8913539,1.528044 3.2365112,1.60234 0,0 0.3926368,-0.466921 0.7109777,-0.870144 -1.3476754,-0.403245 -1.857024,-1.241545 -1.857024,-1.241545 0,0 0.1061382,0.07428 0.2971499,0.180387 0.010639,0 0.021198,0.01046 0.042395,0.02126 0.031853,0.02126 0.063642,0.03186 0.095534,0.05298 0.2652868,0.148553 0.5305683,0.265316 0.7746239,0.360797 0.4350869,0.180407 0.9550613,0.339558 1.5599245,0.456288 0.7958666,0.148557 1.7296638,0.201601 2.7483778,0.0105 0.498749,-0.09551 1.008136,-0.23344 1.538728,-0.456289 0.3714,-0.137941 0.785227,-0.339552 1.220307,-0.626065 0,0 -0.530572,0.859545 -1.920687,1.252176 0.318351,0.392627 0.70038,0.848904 0.70038,0.848904 2.345153,-0.07428 3.236509,-1.602353 3.236509,-1.591738 0,-3.3850944 -1.52806,-6.1335212 -1.52806,-6.1335212 C 13.436017,3.6032636 11.9822,3.6351253 11.9822,3.6351253 L 11.833681,3.8048572 C 13.63765,4.3460578 14.47594,5.1419455 14.47594,5.1419455 13.372343,4.5476868 12.289986,4.2505368 11.281883,4.1338142 c -0.76403,-0.084853 -1.4962724,-0.063629 -2.143569,0.021361 -0.06364,0 -0.1167279,0.010639 -0.1803872,0.021198 C 8.5865336,4.2187682 7.6845538,4.3461453 6.5491044,4.8448911 6.1564682,5.014674 5.922999,5.1420341 5.922999,5.1420341 c 0,0 0.8701453,-0.838344 2.780246,-1.379528 L 8.5971374,3.6351799 c 0,0 -0.00567,-1.327e-4 -0.016608,-9.85e-5 z m -0.269939,3.9157701 c 0.6048633,0 1.0930053,0.5199342 1.0823987,1.1672585 0,0.647309 -0.4775354,1.1672848 -1.0823987,1.1672848 -0.5942428,0 -1.0823832,-0.5199758 -1.0823832,-1.1672848 0,-0.6473243 0.4775241,-1.1672585 1.0823832,-1.1672585 z m 3.8732276,0 c 0.594248,0 1.082393,0.5199342 1.082393,1.1672585 0,0.647309 -0.477529,1.1672848 -1.082393,1.1672848 -0.594238,0 -1.082385,-0.5199758 -1.082385,-1.1672848 0,-0.6473243 0.477531,-1.1672585 1.082385,-1.1672585 z"
       id="path8-1-0-6-7"
       inkscape:connector-curvature="0" />
    <g
       aria-label="Join my Discord"
       id="text4040"
       style="font-size:5.2911px;line-height:1.25;fill:#ffffff;stroke-width:0.132278"
       transform="translate(0.13229167)">
      <path
         d="m 22.016567,5.8554675 h 0.762145 v 2.3975297 q 0,0.4702051 -0.08267,0.7233925 -0.111093,0.3306938 -0.403033,0.5322103 -0.291941,0.198933 -0.769897,0.198933 -0.560629,0 -0.862904,-0.312609 Q 20.357934,9.0797315 20.35535,8.4725985 l 0.720809,-0.082674 q 0.01292,0.3255267 0.09559,0.459871 0.124011,0.2041001 0.377198,0.2041001 0.255771,0 0.361696,-0.1446785 0.105926,-0.1472621 0.105926,-0.6071331 z"
         style="font-weight:bold;font-family:Arial;-inkscape-font-specification:'Arial Bold'"
         id="path8239" />
      <path
         d="m 23.419431,8.2323288 q 0,-0.3616963 0.178265,-0.7001407 0.178265,-0.3384444 0.503791,-0.516709 0.328111,-0.1782646 0.731144,-0.1782646 0.622634,0 1.0205,0.4056166 0.397866,0.403033 0.397866,1.0205002 0,0.6226344 -0.403033,1.033418 -0.40045,0.4082001 -1.010166,0.4082001 -0.377198,0 -0.720809,-0.170514 Q 23.775961,9.3639215 23.597696,9.0358113 23.419431,8.7051175 23.419431,8.2323288 Z m 0.744061,0.038753 q 0,0.4082001 0.193766,0.6252178 0.193766,0.2170178 0.477956,0.2170178 0.28419,0 0.475372,-0.2170178 0.193766,-0.2170177 0.193766,-0.6303849 0,-0.403033 -0.193766,-0.6200508 -0.191182,-0.2170178 -0.475372,-0.2170178 -0.28419,0 -0.477956,0.2170178 -0.193766,0.2170178 -0.193766,0.6252179 z"
         style="font-weight:bold;font-family:Arial;-inkscape-font-specification:'Arial Bold'"
         id="path8241" />
      <path
         d="M 26.819376,6.5271891 V 5.8554675 h 0.725976 v 0.6717216 z m 0,3.1157552 V 6.8992196 h 0.725976 v 2.7437247 z"
         style="font-weight:bold;font-family:Arial;-inkscape-font-specification:'Arial Bold'"
         id="path8243" />
      <path
         d="M 30.785118,9.6429443 H 30.059142 V 8.242663 q 0,-0.4443697 -0.0465,-0.573547 -0.0465,-0.1317608 -0.152429,-0.2041 -0.103342,-0.072339 -0.250604,-0.072339 -0.188599,0 -0.338444,0.1033418 -0.149846,0.1033418 -0.206684,0.2738558 -0.05425,0.1705139 -0.05425,0.6303849 V 9.6429443 H 28.284247 V 6.8992196 h 0.674305 v 0.403033 q 0.359113,-0.4650381 0.904241,-0.4650381 0.240269,0 0.439202,0.087841 0.198933,0.085257 0.299692,0.2196013 0.103341,0.1343443 0.142094,0.3048583 0.04134,0.170514 0.04134,0.48829 z"
         style="font-weight:bold;font-family:Arial;-inkscape-font-specification:'Arial Bold'"
         id="path8245" />
      <path
         d="m 32.937211,6.8992196 h 0.669139 v 0.374614 q 0.359112,-0.4366191 0.855153,-0.4366191 0.263522,0 0.457287,0.1085089 0.193766,0.1085089 0.317776,0.3281102 0.180849,-0.2196013 0.390116,-0.3281102 0.209267,-0.1085089 0.446953,-0.1085089 0.302275,0 0.511542,0.1240102 0.209267,0.1214266 0.312609,0.3591127 0.07492,0.1756811 0.07492,0.5683799 v 1.754227 H 36.246733 V 8.0747326 q 0,-0.4082001 -0.07492,-0.5270432 -0.100759,-0.1550127 -0.310026,-0.1550127 -0.152429,0 -0.286773,0.093008 -0.134344,0.093008 -0.193766,0.2738558 -0.05942,0.1782646 -0.05942,0.5657963 V 9.6429443 H 34.595847 V 8.1393212 q 0,-0.4004495 -0.03875,-0.516709 -0.03875,-0.1162595 -0.121426,-0.1730975 -0.08009,-0.056838 -0.219602,-0.056838 -0.16793,0 -0.302275,0.090424 -0.134344,0.090424 -0.193765,0.260938 -0.05684,0.170514 -0.05684,0.5657963 v 1.3331092 h -0.725977 z"
         style="font-weight:bold;font-family:Arial;-inkscape-font-specification:'Arial Bold'"
         id="path8247" />
      <path
         d="m 37.352488,6.8992196 h 0.77248 l 0.65622,1.9479929 0.64072,-1.9479929 h 0.751811 L 39.20489,9.5396025 39.031792,10.017558 q -0.09559,0.24027 -0.183431,0.366864 -0.08526,0.126593 -0.198933,0.2041 -0.111093,0.08009 -0.27644,0.12401 -0.162763,0.04392 -0.369447,0.04392 -0.209267,0 -0.410783,-0.04392 l -0.06459,-0.56838 q 0.170514,0.03359 0.307442,0.03359 0.253187,0 0.374614,-0.149845 0.121427,-0.1472625 0.186015,-0.377198 z"
         style="font-weight:bold;font-family:Arial;-inkscape-font-specification:'Arial Bold'"
         id="path8249" />
      <path
         d="m 42.111378,5.8554675 h 1.397698 q 0.472789,0 0.720809,0.072339 0.333277,0.098175 0.570963,0.3487786 0.237687,0.2506038 0.361697,0.6148837 0.12401,0.3616963 0.12401,0.8939065 0,0.4676217 -0.11626,0.806066 -0.142095,0.4133672 -0.405616,0.6691382 -0.198933,0.1937659 -0.537378,0.3022747 -0.253187,0.08009 -0.676888,0.08009 h -1.439035 z m 0.764729,0.6407191 v 2.5086221 h 0.570964 q 0.320359,0 0.462454,-0.03617 0.186016,-0.046504 0.307442,-0.1575962 0.12401,-0.1110925 0.201517,-0.3642799 0.07751,-0.2557709 0.07751,-0.6949736 0,-0.4392026 -0.07751,-0.6743052 Q 44.340977,6.8423816 44.201466,6.7106208 44.061955,6.57886 43.84752,6.5323562 q -0.160179,-0.03617 -0.627801,-0.03617 z"
         style="font-weight:bold;font-family:Arial;-inkscape-font-specification:'Arial Bold'"
         id="path8251" />
      <path
         d="M 45.929859,6.5271891 V 5.8554675 h 0.725976 v 0.6717216 z m 0,3.1157552 V 6.8992196 h 0.725976 v 2.7437247 z"
         style="font-weight:bold;font-family:Arial;-inkscape-font-specification:'Arial Bold'"
         id="path8253" />
      <path
         d="m 47.144125,8.8601302 0.72856,-0.1110924 q 0.0465,0.2118507 0.188599,0.3229431 0.142094,0.1085089 0.397865,0.1085089 0.281607,0 0.423702,-0.1033418 0.09559,-0.072339 0.09559,-0.1937659 0,-0.082673 -0.05167,-0.1369279 -0.05425,-0.051671 -0.242853,-0.095591 -0.878405,-0.193766 -1.113508,-0.3539458 -0.325527,-0.2221848 -0.325527,-0.6174672 0,-0.3565292 0.281607,-0.5993824 0.281606,-0.2428533 0.873238,-0.2428533 0.563213,0 0.837068,0.1834317 0.273856,0.1834317 0.377198,0.5425445 l -0.684639,0.1265937 q -0.04392,-0.1601798 -0.167931,-0.2454368 -0.121426,-0.085257 -0.348778,-0.085257 -0.286774,0 -0.410784,0.08009 -0.08267,0.056838 -0.08267,0.1472621 0,0.077506 0.07234,0.1317608 0.09817,0.072339 0.676889,0.2041 0.581297,0.1317608 0.811233,0.3229431 0.227352,0.1937659 0.227352,0.5399609 0,0.3771976 -0.315193,0.6484698 -0.315192,0.2712722 -0.93266,0.2712722 -0.560629,0 -0.888739,-0.2273519 -0.325527,-0.227352 -0.426285,-0.6174673 z"
         style="font-weight:bold;font-family:Arial;-inkscape-font-specification:'Arial Bold'"
         id="path8255" />
      <path
         d="M 52.734916,7.7104527 52.019274,7.83963 Q 51.983105,7.6251957 51.853927,7.5166869 51.727334,7.408178 51.523234,7.408178 q -0.271273,0 -0.434036,0.1885987 -0.16018,0.1860153 -0.16018,0.6252179 0,0.48829 0.162764,0.6898065 0.165346,0.2015165 0.441786,0.2015165 0.206683,0 0.338444,-0.1162595 0.131761,-0.1188431 0.186015,-0.4056166 l 0.713059,0.1214267 q -0.111093,0.4908735 -0.426285,0.7414774 -0.315193,0.2506038 -0.844819,0.2506038 -0.601966,0 -0.961079,-0.3797811 -0.356529,-0.3797811 -0.356529,-1.0515028 0,-0.6794723 0.359112,-1.0566699 0.359113,-0.3797811 0.971413,-0.3797811 0.501208,0 0.795732,0.2170178 0.297108,0.2144342 0.426285,0.6562204 z"
         style="font-weight:bold;font-family:Arial;-inkscape-font-specification:'Arial Bold'"
         id="path8257" />
      <path
         d="m 53.117281,8.2323288 q 0,-0.3616963 0.178264,-0.7001407 0.178265,-0.3384444 0.503791,-0.516709 0.328111,-0.1782646 0.731144,-0.1782646 0.622634,0 1.0205,0.4056166 0.397866,0.403033 0.397866,1.0205002 0,0.6226344 -0.403033,1.033418 -0.40045,0.4082001 -1.010166,0.4082001 -0.377198,0 -0.720809,-0.170514 Q 53.47381,9.3639215 53.295545,9.0358113 53.117281,8.7051175 53.117281,8.2323288 Z m 0.74406,0.038753 q 0,0.4082001 0.193766,0.6252178 0.193766,0.2170178 0.477956,0.2170178 0.28419,0 0.475372,-0.2170178 0.193766,-0.2170177 0.193766,-0.6303849 0,-0.403033 -0.193766,-0.6200508 -0.191182,-0.2170178 -0.475372,-0.2170178 -0.28419,0 -0.477956,0.2170178 -0.193766,0.2170178 -0.193766,0.6252179 z"
         style="font-weight:bold;font-family:Arial;-inkscape-font-specification:'Arial Bold'"
         id="path8259" />
      <path
         d="M 57.212198,9.6429443 H 56.486222 V 6.8992196 h 0.674305 v 0.3901153 q 0.173098,-0.2764393 0.310026,-0.3642798 0.139511,-0.087841 0.315192,-0.087841 0.248021,0 0.477956,0.1369279 l -0.224768,0.6329685 q -0.183432,-0.118843 -0.341028,-0.118843 -0.152429,0 -0.258355,0.085257 -0.105925,0.082673 -0.16793,0.3022748 -0.05942,0.2196013 -0.05942,0.919742 z"
         style="font-weight:bold;font-family:Arial;-inkscape-font-specification:'Arial Bold'"
         id="path8261" />
      <path
         d="m 61.092683,9.6429443 h -0.674305 v -0.403033 q -0.16793,0.2351026 -0.397866,0.3513621 -0.227352,0.113676 -0.459871,0.113676 -0.472789,0 -0.811233,-0.3797811 -0.335861,-0.3823646 -0.335861,-1.0644205 0,-0.6975571 0.32811,-1.0592534 0.328111,-0.3642799 0.829318,-0.3642799 0.459871,0 0.795732,0.3823647 V 5.8554675 h 0.725976 z M 59.155025,8.2116604 q 0,0.4392027 0.121426,0.6355521 0.175681,0.2841899 0.490874,0.2841899 0.250604,0 0.426285,-0.2118506 0.175681,-0.2144343 0.175681,-0.6381356 0,-0.4727888 -0.170514,-0.6794724 -0.170514,-0.2092671 -0.436619,-0.2092671 -0.258355,0 -0.434036,0.2066836 -0.173097,0.2041 -0.173097,0.6123001 z"
         style="font-weight:bold;font-family:Arial;-inkscape-font-specification:'Arial Bold'"
         id="path8263" />
    </g>
    <text
       xml:space="preserve"
       style="font-style:normal;font-weight:normal;font-size:5.2911px;line-height:1.25;font-family:sans-serif;fill:#ffffff;fill-opacity:1;stroke:none;stroke-width:0.132278"
       x="20.264923"
       y="-8.4810133"
       id="text8237"><tspan
         sodipodi:role="line"
         id="tspan8235"
         style="font-style:normal;font-variant:normal;font-weight:bold;font-stretch:normal;font-family:Arial;-inkscape-font-specification:'Arial Bold';fill:#ffffff;fill-opacity:1;stroke-width:0.132278"
         x="20.264923"
         y="-8.4810133">Join my Discord</tspan></text>
  </g>
</svg>
