<?xml version="1.0" encoding="UTF-8" standalone="no"?>
<!-- Created with Inkscape (http://www.inkscape.org/) -->

<svg
   width="250"
   height="60"
   viewBox="0 0 66.145835 15.875"
   version="1.1"
   id="svg291"
   inkscape:version="1.2 (dc2aedaf03, 2022-05-15)"
   inkscape:export-xdpi="96"
   inkscape:export-ydpi="96"
   sodipodi:docname="kofi.svg"
   xml:space="preserve"
   xmlns:inkscape="http://www.inkscape.org/namespaces/inkscape"
   xmlns:sodipodi="http://sodipodi.sourceforge.net/DTD/sodipodi-0.dtd"
   xmlns="http://www.w3.org/2000/svg"
   xmlns:svg="http://www.w3.org/2000/svg"><sodipodi:namedview
     id="namedview293"
     pagecolor="#ffffff"
     bordercolor="#666666"
     borderopacity="1.0"
     inkscape:pageshadow="2"
     inkscape:pageopacity="0.0"
     inkscape:pagecheckerboard="0"
     inkscape:document-units="px"
     showgrid="false"
     width="1920px"
     units="px"
     borderlayer="true"
     inkscape:showpageshadow="false"
     inkscape:snap-global="false"
     inkscape:zoom="5.6568542"
     inkscape:cx="129.13538"
     inkscape:cy="21.213203"
     inkscape:window-width="2560"
     inkscape:window-height="1377"
     inkscape:window-x="-8"
     inkscape:window-y="-8"
     inkscape:window-maximized="1"
     inkscape:current-layer="layer1"
     inkscape:deskcolor="#d1d1d1" /><defs
     id="defs288"><clipPath
       clipPathUnits="userSpaceOnUse"
       id="clipPath53738"><circle
         style="fill:#ffbc05;fill-opacity:1;stroke-width:2.304;stroke-linecap:round;stroke-linejoin:round;paint-order:markers stroke fill"
         id="circle53740"
         cx="-57.216148"
         cy="44.714584"
         r="37.769272" /></clipPath></defs><g
     inkscape:label="Layer 1"
     inkscape:groupmode="layer"
     id="layer1"><rect
       style="font-size:5.19048px;line-height:1.25;font-family:'Baloo Tammudu 2';-inkscape-font-specification:'Baloo Tammudu 2, ';fill:#ff5f5f;fill-opacity:1;stroke-width:4.44081;stroke-linecap:round;stroke-linejoin:round;stroke-dashoffset:0.7;paint-order:markers stroke fill"
       id="rect1251"
       width="66.145836"
       height="15.875"
       x="0"
       y="-2.220446e-16" /><g
       aria-label="Buy me a coffee"
       id="text4040"
       style="font-size:5.2911px;line-height:1.25;fill:#ffffff;stroke-width:0.132278"
       transform="translate(0.74835469)"><path
         d="m 19.924851,5.8554675 h 1.513957 q 0.449537,0 0.669138,0.038753 0.222185,0.03617 0.395283,0.1550127 0.175681,0.1188431 0.29194,0.3177761 0.11626,0.1963494 0.11626,0.4417861 0,0.2661052 -0.144679,0.48829 -0.142095,0.2221849 -0.387531,0.3332773 0.346195,0.1007583 0.53221,0.3436115 0.186015,0.2428532 0.186015,0.5709634 0,0.2583545 -0.121427,0.5037913 -0.118843,0.2428532 -0.32811,0.3901153 -0.206683,0.1446785 -0.511542,0.1782646 -0.191182,0.020668 -0.922325,0.025835 h -1.289189 z m 0.764729,0.6303849 v 0.8758218 h 0.501208 q 0.446953,0 0.555462,-0.012918 0.19635,-0.023252 0.307442,-0.1343443 0.113676,-0.113676 0.113676,-0.2971077 0,-0.175681 -0.09818,-0.2841899 Q 21.973598,6.5220219 21.782415,6.49877 21.668739,6.485852 21.128778,6.485852 Z m 0,1.5062067 v 1.0127496 h 0.707892 q 0.413367,0 0.524459,-0.023252 0.170514,-0.031002 0.276439,-0.1498456 0.108509,-0.1214266 0.108509,-0.3229431 0,-0.170514 -0.08267,-0.289357 -0.08267,-0.1188431 -0.24027,-0.1730975 -0.155012,-0.054254 -0.676889,-0.054254 z"
         style="font-weight:bold;font-family:Arial;-inkscape-font-specification:'Arial Bold'"
         id="path429" /><path
         d="M 25.544061,9.6429443 V 9.2321607 q -0.149845,0.2196013 -0.395282,0.346195 -0.242853,0.1265937 -0.514126,0.1265937 -0.276439,0 -0.49604,-0.1214266 Q 23.919011,9.4620962 23.820837,9.2424949 23.722662,9.0228936 23.722662,8.6353618 V 6.8992196 h 0.725976 v 1.2607699 q 0,0.5787141 0.03875,0.7104749 0.04134,0.1291772 0.147262,0.2066836 0.105926,0.074923 0.268689,0.074923 0.186015,0 0.333277,-0.1007583 0.147262,-0.1033418 0.201517,-0.2531874 0.05425,-0.1524291 0.05425,-0.7414774 V 6.8992196 h 0.725976 v 2.7437247 z"
         style="font-weight:bold;font-family:Arial;-inkscape-font-specification:'Arial Bold'"
         id="path431" /><path
         d="m 26.626567,6.8992196 h 0.772479 l 0.656221,1.9479929 0.640719,-1.9479929 h 0.751812 l -0.96883,2.6403829 -0.173097,0.4779555 q -0.09559,0.24027 -0.183432,0.366864 -0.08526,0.126593 -0.198933,0.2041 -0.111092,0.08009 -0.276439,0.12401 -0.162764,0.04392 -0.369447,0.04392 -0.209267,0 -0.410784,-0.04392 l -0.06459,-0.56838 q 0.170514,0.03359 0.307441,0.03359 0.253188,0 0.374614,-0.149845 0.121427,-0.1472625 0.186016,-0.377198 z"
         style="font-weight:bold;font-family:Arial;-inkscape-font-specification:'Arial Bold'"
         id="path433" /><path
         d="m 31.328618,6.8992196 h 0.669139 v 0.374614 q 0.359112,-0.4366191 0.855153,-0.4366191 0.263522,0 0.457287,0.1085089 0.193766,0.1085089 0.317776,0.3281102 0.180849,-0.2196013 0.390116,-0.3281102 0.209267,-0.1085089 0.446953,-0.1085089 0.302275,0 0.511542,0.1240102 0.209267,0.1214266 0.312609,0.3591127 0.07492,0.1756811 0.07492,0.5683799 v 1.754227 H 34.63814 V 8.0747326 q 0,-0.4082001 -0.07492,-0.5270432 -0.100759,-0.1550127 -0.310026,-0.1550127 -0.152429,0 -0.286773,0.093008 -0.134344,0.093008 -0.193766,0.2738558 -0.05942,0.1782646 -0.05942,0.5657963 V 9.6429443 H 32.987254 V 8.1393212 q 0,-0.4004495 -0.03875,-0.516709 -0.03875,-0.1162595 -0.121426,-0.1730975 -0.08009,-0.056838 -0.219602,-0.056838 -0.16793,0 -0.302275,0.090424 -0.134344,0.090424 -0.193765,0.260938 -0.05684,0.170514 -0.05684,0.5657963 v 1.3331092 h -0.725977 z"
         style="font-weight:bold;font-family:Arial;-inkscape-font-specification:'Arial Bold'"
         id="path435" /><path
         d="m 37.676389,8.7697061 0.723392,0.1214267 q -0.139511,0.3978659 -0.441786,0.607133 -0.299691,0.2066836 -0.751812,0.2066836 -0.715641,0 -1.059253,-0.4676216 -0.271272,-0.374614 -0.271272,-0.9455775 0,-0.6820558 0.356529,-1.067004 0.356529,-0.3875318 0.901657,-0.3875318 0.6123,0 0.966246,0.4056166 0.353946,0.403033 0.338444,1.237518 h -1.818815 q 0.0077,0.3229431 0.175681,0.5037913 0.16793,0.1782646 0.418534,0.1782646 0.170514,0 0.286774,-0.093008 0.116259,-0.093008 0.175681,-0.2996909 z m 0.04134,-0.7337267 q -0.0078,-0.3151925 -0.162763,-0.4779558 -0.155013,-0.1653469 -0.377198,-0.1653469 -0.237686,0 -0.392698,0.1730975 -0.155013,0.1730975 -0.152429,0.4702052 z"
         style="font-weight:bold;font-family:Arial;-inkscape-font-specification:'Arial Bold'"
         id="path437" /><path
         d="M 41.042748,7.7362882 40.383944,7.6174451 q 0.111092,-0.3978659 0.382365,-0.5890482 0.271272,-0.1911824 0.806066,-0.1911824 0.485706,0 0.723392,0.1162596 0.237686,0.1136759 0.333277,0.2919405 0.09817,0.1756811 0.09817,0.6484698 l -0.0078,0.8474028 q 0,0.3616962 0.03359,0.5347938 0.03617,0.1705139 0.13176,0.3668633 H 42.16659 q -0.02842,-0.072339 -0.06976,-0.2144342 -0.01808,-0.064589 -0.02584,-0.085257 -0.186015,0.1808482 -0.397866,0.2712722 -0.211851,0.090424 -0.45212,0.090424 -0.423702,0 -0.669139,-0.2299355 -0.242853,-0.2299355 -0.242853,-0.5812976 0,-0.232519 0.111093,-0.4133672 0.111092,-0.1834317 0.310025,-0.2790228 0.201516,-0.098175 0.578714,-0.170514 0.508958,-0.095591 0.705308,-0.1782646 v -0.072339 q 0,-0.2092671 -0.103342,-0.2971076 -0.103342,-0.090424 -0.390115,-0.090424 -0.193766,0 -0.302275,0.077506 -0.108509,0.074923 -0.175681,0.2661052 z m 0.971413,0.5890482 q -0.139512,0.046504 -0.441786,0.1110925 -0.302275,0.064589 -0.395283,0.1265937 -0.142095,0.1007582 -0.142095,0.2557709 0,0.1524292 0.113676,0.2635216 0.113676,0.1110924 0.289357,0.1110924 0.19635,0 0.374614,-0.1291772 0.131761,-0.098175 0.173098,-0.2402697 0.02842,-0.093008 0.02842,-0.3539457 z"
         style="font-weight:bold;font-family:Arial;-inkscape-font-specification:'Arial Bold'"
         id="path439" /><path
         d="M 47.305261,7.7104527 46.589619,7.83963 Q 46.553449,7.6251957 46.424272,7.5166869 46.297678,7.408178 46.093578,7.408178 q -0.271272,0 -0.434035,0.1885987 -0.16018,0.1860153 -0.16018,0.6252179 0,0.48829 0.162763,0.6898065 0.165347,0.2015165 0.441787,0.2015165 0.206683,0 0.338444,-0.1162595 0.131761,-0.1188431 0.186015,-0.4056166 l 0.713059,0.1214267 q -0.111093,0.4908735 -0.426285,0.7414774 -0.315193,0.2506038 -0.844819,0.2506038 -0.601966,0 -0.961079,-0.3797811 -0.356529,-0.3797811 -0.356529,-1.0515028 0,-0.6794723 0.359112,-1.0566699 0.359113,-0.3797811 0.971413,-0.3797811 0.501208,0 0.795732,0.2170178 0.297108,0.2144342 0.426285,0.6562204 z"
         style="font-weight:bold;font-family:Arial;-inkscape-font-specification:'Arial Bold'"
         id="path441" /><path
         d="m 47.687625,8.2323288 q 0,-0.3616963 0.178265,-0.7001407 0.178265,-0.3384444 0.503791,-0.516709 0.328111,-0.1782646 0.731144,-0.1782646 0.622634,0 1.0205,0.4056166 0.397866,0.403033 0.397866,1.0205002 0,0.6226344 -0.403033,1.033418 -0.40045,0.4082001 -1.010166,0.4082001 -0.377198,0 -0.720809,-0.170514 Q 48.044155,9.3639215 47.86589,9.0358113 47.687625,8.7051175 47.687625,8.2323288 Z m 0.744061,0.038753 q 0,0.4082001 0.193766,0.6252178 0.193766,0.2170178 0.477956,0.2170178 0.28419,0 0.475372,-0.2170178 0.193766,-0.2170177 0.193766,-0.6303849 0,-0.403033 -0.193766,-0.6200508 -0.191182,-0.2170178 -0.475372,-0.2170178 -0.28419,0 -0.477956,0.2170178 -0.193766,0.2170178 -0.193766,0.6252179 z"
         style="font-weight:bold;font-family:Arial;-inkscape-font-specification:'Arial Bold'"
         id="path443" /><path
         d="m 50.769794,6.8992196 h 0.403033 V 6.692536 q 0,-0.346195 0.07234,-0.516709 0.07492,-0.1705139 0.271272,-0.2764393 0.198933,-0.1085089 0.501208,-0.1085089 0.310025,0 0.607133,0.093008 l -0.09817,0.5063748 q -0.173097,-0.041337 -0.333277,-0.041337 -0.157596,0 -0.227352,0.074923 -0.06717,0.072339 -0.06717,0.2816064 v 0.1937659 h 0.542544 V 7.470183 H 51.898803 V 9.6429443 H 51.172827 V 7.470183 h -0.403033 z"
         style="font-weight:bold;font-family:Arial;-inkscape-font-specification:'Arial Bold'"
         id="path445" /><path
         d="m 52.53177,6.8992196 h 0.403033 V 6.692536 q 0,-0.346195 0.07234,-0.516709 0.07492,-0.1705139 0.271272,-0.2764393 0.198933,-0.1085089 0.501208,-0.1085089 0.310025,0 0.607133,0.093008 l -0.09817,0.5063748 q -0.173097,-0.041337 -0.333277,-0.041337 -0.157596,0 -0.227352,0.074923 -0.06717,0.072339 -0.06717,0.2816064 v 0.1937659 h 0.542544 V 7.470183 H 53.660779 V 9.6429443 H 52.934803 V 7.470183 H 52.53177 Z"
         style="font-weight:bold;font-family:Arial;-inkscape-font-specification:'Arial Bold'"
         id="path447" /><path
         d="m 56.200404,8.7697061 0.723393,0.1214267 q -0.139512,0.3978659 -0.441787,0.607133 -0.299691,0.2066836 -0.751811,0.2066836 -0.715642,0 -1.059254,-0.4676216 -0.271272,-0.374614 -0.271272,-0.9455775 0,-0.6820558 0.356529,-1.067004 0.35653,-0.3875318 0.901658,-0.3875318 0.6123,0 0.966245,0.4056166 0.353946,0.403033 0.338445,1.237518 h -1.818816 q 0.0078,0.3229431 0.175681,0.5037913 0.167931,0.1782646 0.418535,0.1782646 0.170514,0 0.286773,-0.093008 0.11626,-0.093008 0.175681,-0.2996909 z m 0.04134,-0.7337267 Q 56.23399,7.7207869 56.078977,7.5580236 55.923965,7.3926767 55.70178,7.3926767 q -0.237686,0 -0.392699,0.1730975 -0.155013,0.1730975 -0.152429,0.4702052 z"
         style="font-weight:bold;font-family:Arial;-inkscape-font-specification:'Arial Bold'"
         id="path449" /><path
         d="m 59.143062,8.7697061 0.723392,0.1214267 q -0.139511,0.3978659 -0.441786,0.607133 -0.299691,0.2066836 -0.751812,0.2066836 -0.715642,0 -1.059253,-0.4676216 -0.271272,-0.374614 -0.271272,-0.9455775 0,-0.6820558 0.356529,-1.067004 0.356529,-0.3875318 0.901657,-0.3875318 0.6123,0 0.966246,0.4056166 0.353946,0.403033 0.338444,1.237518 h -1.818815 q 0.0078,0.3229431 0.175681,0.5037913 0.16793,0.1782646 0.418534,0.1782646 0.170514,0 0.286774,-0.093008 0.116259,-0.093008 0.175681,-0.2996909 z m 0.04134,-0.7337267 q -0.0078,-0.3151925 -0.162763,-0.4779558 -0.155013,-0.1653469 -0.377198,-0.1653469 -0.237686,0 -0.392698,0.1730975 -0.155013,0.1730975 -0.15243,0.4702052 z"
         style="font-weight:bold;font-family:Arial;-inkscape-font-specification:'Arial Bold'"
         id="path451" /></g><text
       xml:space="preserve"
       style="font-style:normal;font-weight:normal;font-size:5.2911px;line-height:1.25;font-family:sans-serif;fill:#ffffff;fill-opacity:1;stroke:none;stroke-width:0.132278"
       x="19.537319"
       y="23.581051"
       id="text427"><tspan
         sodipodi:role="line"
         id="tspan425"
         style="font-style:normal;font-variant:normal;font-weight:bold;font-stretch:normal;font-family:Arial;-inkscape-font-specification:'Arial Bold';fill:#ffffff;fill-opacity:1;stroke-width:0.132278"
         x="19.537319"
         y="23.581051">Buy me a coffee</tspan></text><path
       id="rect506"
       style="fill:#ffffff;stroke-width:2.94595;stroke-linecap:round;stroke-linejoin:round;stroke-dashoffset:0.7;paint-order:markers stroke fill;fill-opacity:1"
       d="m 4.8039417,3.5462004 c -0.4352138,0 -0.7855868,0.350372 -0.7855868,0.7855865 v 4.2482291 1.436534 1.112403 c 0,0.846292 0.6815362,1.527828 1.5278281,1.527828 h 7.047648 c 0.846293,0 1.527829,-0.681536 1.527829,-1.527828 v -0.553132 a 3.5965143,3.5167284 0 0 0 0.153818,0.0057 3.5965143,3.5167284 0 0 0 3.596515,-3.5167276 3.5965143,3.5167284 0 0 0 -3.596515,-3.5167279 3.5965143,3.5167284 0 0 0 -0.636754,0.057919 c -0.09303,-0.038637 -0.195316,-0.059837 -0.302651,-0.059837 z m 9.3856123,2.2144497 a 1.3502273,1.3041807 0 0 1 1.350228,1.304196 1.3502273,1.3041807 0 0 1 -1.350228,1.3041971 1.3502273,1.3041807 0 0 1 -0.0679,-0.00386 V 5.7644627 a 1.3502273,1.3041807 0 0 1 0.0679,-0.00386 z M 7.6064302,5.8630664 c 0.5413306,-3.55e-5 1.1412765,0.2768931 1.3912712,0.7104037 0.2529291,-0.3903145 0.7819374,-0.704031 1.3229916,-0.7042667 0.821894,1.241e-4 1.426776,0.5997668 1.426945,1.4000937 -1.7e-4,0.4879535 -0.243251,0.9308046 -0.652866,1.3889697 L 9.0015368,10.684758 6.8802996,8.7077491 C 6.4481934,8.2714375 6.2439665,7.8063126 6.2496821,7.2171295 6.2498513,6.4166566 6.784388,5.862984 7.6064302,5.8630664 Z" /></g></svg>
