<?xml version="1.0" encoding="UTF-8" standalone="no"?>
<svg
   width="96"
   height="120"
   viewBox="0 0 96 120"
   version="1.1"
   xml:space="preserve"
   style="clip-rule:evenodd;fill-rule:evenodd;stroke-linecap:round;stroke-linejoin:round;stroke-miterlimit:40"
   id="svg3633"
   sodipodi:docname="logo.svg"
   inkscape:export-filename=""
   inkscape:export-xdpi="96"
   inkscape:export-ydpi="96"
   inkscape:version="1.1.1 (3bf5ae0d25, 2021-09-20)"
   xmlns:inkscape="http://www.inkscape.org/namespaces/inkscape"
   xmlns:sodipodi="http://sodipodi.sourceforge.net/DTD/sodipodi-0.dtd"
   xmlns="http://www.w3.org/2000/svg"
   xmlns:svg="http://www.w3.org/2000/svg"
   xmlns:rdf="http://www.w3.org/1999/02/22-rdf-syntax-ns#"
   xmlns:cc="http://creativecommons.org/ns#"
   xmlns:dc="http://purl.org/dc/elements/1.1/"
   xmlns:serif="http://www.serif.com/"><metadata
   id="metadata3639"><rdf:RDF><cc:Work
       rdf:about=""><dc:format>image/svg+xml</dc:format><dc:type
         rdf:resource="http://purl.org/dc/dcmitype/StillImage" /></cc:Work></rdf:RDF></metadata><defs
   id="defs3637">
        
        
        
        
        
    
            
        
            
        
            
        
            
        
            
        </defs><sodipodi:namedview
   pagecolor="#ffffff"
   bordercolor="#666666"
   borderopacity="1"
   objecttolerance="10"
   gridtolerance="10"
   guidetolerance="10"
   inkscape:pageopacity="0"
   inkscape:pageshadow="2"
   inkscape:window-width="2560"
   inkscape:window-height="1377"
   id="namedview3635"
   showgrid="false"
   inkscape:zoom="2.8710937"
   inkscape:cx="162.65578"
   inkscape:cy="108.49524"
   inkscape:window-x="2552"
   inkscape:window-y="-8"
   inkscape:window-maximized="1"
   inkscape:current-layer="svg3633"
   inkscape:pagecheckerboard="0"
   inkscape:snap-global="false" />
    
    <clipPath
   id="_clip1">
        <rect
   id="Artboard11"
   serif:id="Artboard1"
   x="0"
   y="0"
   width="1024"
   height="1024" />
    </clipPath>
    
<g
   id="g835"
   style="clip-rule:evenodd;fill-rule:evenodd;stroke-linecap:round;stroke-linejoin:round;stroke-miterlimit:40"
   transform="matrix(0.19416146,0,0,0.19416146,-1.3238119,-1.2298357)"><rect
     id="Artboard1-1"
     x="6.2100124"
     y="6.2100124"
     width="499.57999"
     height="499.57999"
     style="fill:none;stroke-width:0.487871" /><path
     d="m 205.35529,414.10498 c -8.48498,-0.18777 -14.7107,-0.33555 -16.65536,-0.39832 -5.20803,-0.16833 -70.7281,0.61164 -78.57573,-0.11055 C 103.24537,412.9628 65.922533,410.97287 41.140802,384.61668 14.175884,355.93835 15.398426,285.74553 16.779626,271.50498 18.941622,249.22307 1.3897303,91.759204 28.259018,57.090554 53.786771,24.15406 133.73447,33.260372 148.21044,32.714282 c 31.39106,-1.184398 81.17024,-1.575494 118.97339,-3.06488 18.17892,-0.716084 86.22558,0.530535 104.40722,1.606048 5.65738,0.334987 76.79516,-8.879099 104.44959,32.342626 29.97943,44.688264 21.01577,86.444414 22.71917,113.357254 1.11006,17.54542 -0.41293,94.93463 0.2918,106.66695 0.53519,8.91855 9.84334,75.29207 -26.76444,108.61521 -30.35271,27.62837 -90.21161,25.56512 -110.58295,25.60623 -8.55725,0.0172 -49.23908,-1.32717 -64.23016,-1.21606 -0.44826,12.81061 -0.88512,32.20596 2.43911,35.60416 8.67624,8.87132 15.96096,20.05867 26.85081,26.93507 2.07343,1.30939 22.10681,-2.73434 22.10681,-2.73434 0,0 0.69115,14.97441 0.69115,15.16607 0,2.35102 -22.67951,2.82934 -26.98231,5.02925 -6.33222,3.23653 -58.41521,-3.35209 -80.47746,-18.00263 -19.59381,-13.01171 -33.26073,-44.72825 -36.74688,-64.52026 z"
     style="fill:#4d2488;fill-opacity:1;stroke:none;stroke-width:0.549343;stroke-miterlimit:40;stroke-dasharray:none"
     id="path3611-8"
     clip-path="none" /><path
     d="m 204.86742,398.98097 c -8.48498,-0.18777 -14.7107,-0.33554 -16.65536,-0.39831 -5.20803,-0.16833 -70.7281,0.61164 -78.57573,-0.11055 C 102.7575,397.8388 65.434662,395.84887 40.652931,369.49268 13.688013,340.81435 14.910555,270.62153 16.291755,256.38097 18.453751,234.09906 0.90185933,76.635201 27.771147,41.966551 53.2989,9.030057 133.24659,18.136369 147.72257,17.590279 c 31.39106,-1.184398 81.17024,-1.575494 118.97339,-3.064881 18.17892,-0.716083 86.22558,0.530535 104.40722,1.606049 5.65737,0.334987 76.79516,-8.8790986 104.44959,32.342629 29.97943,44.68826 21.01577,86.444404 22.71917,113.357254 1.11006,17.54542 -0.41293,94.93463 0.2918,106.66695 0.53519,8.91854 9.84333,75.29207 -26.76444,108.61521 -30.35272,27.62837 -90.21161,25.56512 -110.58295,25.60623 -8.55725,0.0172 -49.23908,-1.32717 -64.23016,-1.21607 -0.44827,12.81061 -0.88512,32.20597 2.43911,35.60417 8.67624,8.87132 15.38337,21.07307 26.85081,26.93506 5.53404,2.82878 22.79796,12.07509 22.79796,12.43174 0,2.35102 -22.67951,2.82934 -26.98231,5.02925 -6.33222,3.23654 -58.41521,-3.35209 -80.47746,-18.00263 -19.59381,-13.01172 -33.26074,-44.72826 -36.74688,-64.52027 z"
     style="fill:#bd93f9;fill-opacity:1;stroke:none;stroke-width:0.549411"
     id="path3615-8" /><path
     id="path4217-3"
     style="fill:none;stroke:#ffffff;stroke-width:48.7871;stroke-linecap:round;stroke-linejoin:round;stroke-miterlimit:40;stroke-dasharray:none;stroke-opacity:1"
     d="m 99.500933,143.42729 c 4.637767,28.6263 7.405727,52.14939 13.974547,80.30631 -0.75418,5.89368 5.32086,21.30184 8.78095,9.15425 8.28951,-19.17134 13.56869,-40.01916 27.2245,-56.32064 5.0504,-5.75739 14.89436,-26.08051 16.36456,-8.57235 8.86264,30.62481 18.8324,80.90607 34.04197,108.67718 4.56162,6.95491 10.99259,-38.59234 11.59791,-43.34895 2.07083,-31.95349 -3.27219,-75.28976 -1.44162,-107.19815 12.07798,34.10728 23.17124,80.83526 46.00269,104.62132 10.18627,-6.32127 27.08061,-22.2961 40.74939,-21.95452 21.34912,-6.08042 10.00553,26.48549 10.33335,39.41091"
     sodipodi:nodetypes="ccccccccccc" /><path
     id="path4221-8"
     style="font-variation-settings:normal;vector-effect:none;fill:none;fill-opacity:1;stroke:#ffffff;stroke-width:48.7871;stroke-linecap:round;stroke-linejoin:round;stroke-miterlimit:40;stroke-dasharray:none;stroke-dashoffset:0;stroke-opacity:1;stop-color:#000000"
     d="m 410.94328,105.69855 c -2.56223,8.57408 -4.91314,17.33165 -4.88066,26.35363 -0.37083,8.41525 -1.25071,16.87207 -0.14816,25.27013 0.15484,5.53925 0.29304,11.11943 -0.26233,16.63371 -1.15894,3.37371 -0.85752,7.04597 -1.86749,10.47466 -1.31594,6.19725 -1.18354,12.57662 -2.01127,18.82845 -0.0127,0.96332 0.038,1.92597 0.0381,2.88919" /><path
     style="font-variation-settings:normal;vector-effect:none;fill:none;fill-opacity:1;stroke:#ffffff;stroke-width:48.7871;stroke-linecap:round;stroke-linejoin:round;stroke-miterlimit:40;stroke-dasharray:none;stroke-dashoffset:0;stroke-opacity:1;stop-color:#000000"
     d="m 401.47681,288.57174 c -0.0847,0.26193 -0.34768,2.29751 0,0"
     id="path4223-5" /></g></svg>
