<?xml version="1.0" encoding="UTF-8" standalone="no"?>
<!-- Created with Inkscape (http://www.inkscape.org/) -->

<svg
   width="512"
   height="512"
   viewBox="0 0 135.46667 135.46667"
   version="1.1"
   id="svg291"
   inkscape:version="1.3 (0e150ed6c4, 2023-07-21)"
   sodipodi:docname="logo.svg"
   xmlns:inkscape="http://www.inkscape.org/namespaces/inkscape"
   xmlns:sodipodi="http://sodipodi.sourceforge.net/DTD/sodipodi-0.dtd"
   xmlns="http://www.w3.org/2000/svg"
   xmlns:svg="http://www.w3.org/2000/svg">
  <sodipodi:namedview
     id="namedview293"
     pagecolor="#ffffff"
     bordercolor="#666666"
     borderopacity="1.0"
     inkscape:pageshadow="2"
     inkscape:pageopacity="0.0"
     inkscape:pagecheckerboard="0"
     inkscape:document-units="px"
     showgrid="false"
     width="1920px"
     units="px"
     borderlayer="true"
     inkscape:showpageshadow="false"
     inkscape:deskcolor="#d1d1d1"
     inkscape:zoom="1"
     inkscape:cx="118.5"
     inkscape:cy="423.5"
     inkscape:window-width="2560"
     inkscape:window-height="1377"
     inkscape:window-x="-8"
     inkscape:window-y="-8"
     inkscape:window-maximized="1"
     inkscape:current-layer="layer1" />
  <defs
     id="defs288" />
  <g
     inkscape:label="Layer 1"
     inkscape:groupmode="layer"
     id="layer1">
    <g
       id="g4265"
       transform="matrix(0.12123513,0,0,0.12123513,4.67048,0.94397532)"
       style="clip-rule:evenodd;fill-rule:evenodd;stroke-width:0.9717;stroke-linecap:round;stroke-linejoin:round;stroke-miterlimit:40">
      <path
         id="path5"
         style="fill:#000000;fill-opacity:0.09375;stroke:none;stroke-width:1.09413;stroke-miterlimit:40;stroke-dasharray:none"
         d="m 578.84308,58.681159 c -18.89816,-0.06759 -34.60534,0.04652 -43.92077,0.413462 -77.48587,3.052825 -179.51882,3.855236 -243.86169,6.28292 -29.6717,1.119331 -193.54033,-17.545603 -245.865071,49.964989 -25.533607,32.94526 -31.410907,120.00135 -30.9031,208.45313 -0.659634,87.9602 6.131588,181.1951 7.480681,227.87308 -0.05248,0.9288 -0.03158,2.39004 -0.106562,3.16277 -0.759004,7.82553 -1.396507,24.21294 -1.001687,44.67523 -1.05755,51.04013 4.497974,159.73719 50.932573,209.12234 50.795606,54.02282 127.300126,58.10405 141.399806,59.40216 16.08544,1.48029 150.38344,-0.11912 161.05843,0.22591 3.98601,0.12867 16.7465,0.43352 34.13834,0.8184 7.14562,40.56807 35.1565,105.57782 75.31831,132.24825 45.22145,30.0295 151.97934,43.5345 164.95862,36.9005 8.81953,-4.5092 55.3059,-5.4921 55.3059,-10.311 0,-0.2675 -0.54841,-12.0542 -0.96759,-21.1633 0.31673,-0.2632 0.96759,-0.4993 0.96759,-0.7886 0,-0.3929 -1.41941,-31.08642 -1.41941,-31.08642 0,0 -41.06039,8.28907 -45.31034,5.60518 -22.32115,-14.09469 -37.2535,-37.02413 -55.03736,-55.20786 -3.79409,-3.87851 -5.0985,-18.08822 -5.43895,-34.30883 0.12039,-5.78435 0.26043,-11.61319 0.43904,-16.71751 30.72751,-0.22774 114.11577,2.52459 131.65574,2.48929 41.75554,-0.0842 164.44796,4.1463 226.66252,-52.48412 51.8959,-47.23955 58.5787,-126.18273 57.5224,-176.85951 1.0797,-33.60151 -2.2208,-60.33631 -2.6641,-67.72254 -0.2839,-4.72707 -0.2916,-17.68726 -0.2983,-30.86048 0.1888,-38.26905 0.6377,-86.54457 0.4901,-123.42485 0.047,-27.95165 -0.065,-52.92544 -0.7885,-64.35518 -0.258,-4.07654 -0.2254,-8.64425 -0.2856,-13.04324 0.2151,-12.33223 0.4657,-25.28783 0.1875,-39.26612 0.6014,-50.74845 -1.9851,-113.72914 -46.4697,-180.03933 C 906.33807,44.186889 760.52552,63.071898 748.92948,62.385269 720.97904,60.731892 635.53755,58.883935 578.84308,58.681159 Z" />
      <rect
         id="Artboard1"
         x="0"
         y="0"
         width="1024"
         height="1024"
         style="fill:none;stroke-width:0.9717" />
      <path
         d="m 408.19243,836.07123 c -17.39185,-0.38488 -30.15285,-0.68777 -34.13886,-0.81644 -10.675,-0.34503 -144.97293,1.25369 -161.05839,-0.2266 -14.09969,-1.29811 -90.60112,-5.3769 -141.396776,-59.39977 C 16.327822,716.84583 18.833692,572.97007 21.664768,543.78089 26.09626,498.10917 -9.8802373,175.35205 45.19433,104.29096 97.519123,36.780307 261.38966,55.445714 291.06139,54.326382 c 64.34294,-2.427687 166.3764,-3.229325 243.86235,-6.282153 37.26173,-1.467772 176.73846,1.087449 214.00576,3.291953 11.59605,0.68663 157.40873,-18.199683 214.09262,66.293388 61.44948,91.59851 43.07648,177.187 46.56798,232.35084 2.2753,35.96324 -0.8464,194.58959 0.5981,218.63759 1.097,18.28053 20.1761,154.32779 -54.85966,222.63097 -62.21462,56.63047 -184.9087,52.40138 -226.66429,52.48564 -17.53998,0.0353 -100.92642,-2.72033 -131.65396,-2.49259 -0.91882,26.25819 -1.81425,66.01327 4.99949,72.97864 17.78388,18.18374 32.71553,41.11468 55.0367,55.20939 4.24996,2.68389 45.31281,-5.60464 45.31281,-5.60464 0,0 1.41666,30.69339 1.41666,31.08624 0,4.81894 -46.48668,5.79935 -55.30622,10.30855 -12.9793,6.634 -119.73493,-6.87084 -164.95642,-36.90038 -40.16185,-26.67039 -68.17525,-91.68048 -75.32088,-132.24859 z"
         style="fill:#4d2488;fill-opacity:1;stroke:none;stroke-width:1.09413;stroke-miterlimit:40;stroke-dasharray:none"
         id="path3611" />
      <path
         d="m 407.19243,805.07123 c -17.39185,-0.38488 -30.15285,-0.68777 -34.13886,-0.81644 -10.675,-0.34503 -144.97293,1.25369 -161.05839,-0.2266 -14.09969,-1.29811 -90.60112,-5.3769 -141.396776,-59.39977 C 15.327822,685.84583 17.833692,541.97007 20.664768,512.78089 25.09626,467.10917 -10.880237,144.35205 44.19433,73.29096 96.519123,5.7803074 260.38966,24.445714 290.06139,23.326382 c 64.34294,-2.427687 166.3764,-3.229325 243.86235,-6.282153 37.26173,-1.467772 176.73846,1.087449 214.00576,3.291953 11.59605,0.68663 157.40873,-18.1996826 214.09262,66.293393 61.44948,91.598505 43.07648,177.186995 46.56798,232.350835 2.2753,35.96324 -0.8464,194.58959 0.5981,218.63759 1.097,18.28053 20.1761,154.32779 -54.85966,222.63097 -62.21462,56.63047 -184.9087,52.40138 -226.66429,52.48564 -17.53998,0.0353 -100.92642,-2.72033 -131.65396,-2.49259 -0.91882,26.25819 -1.81425,66.01327 4.99949,72.97864 17.78388,18.18374 31.53164,43.19393 55.0367,55.20939 11.34324,5.7982 46.72947,24.75056 46.72947,25.4816 0,4.81894 -46.48668,5.79935 -55.30622,10.30856 -12.9793,6.63401 -119.73493,-6.87085 -164.95642,-36.90039 -40.16185,-26.67039 -68.17525,-91.68048 -75.32088,-132.24859 z"
         style="fill:#bd93f9;fill-opacity:1;stroke:none;stroke-width:1.09428"
         id="path3615" />
      <path
         id="path4217"
         style="color:#000000;clip-rule:nonzero;fill:#ffffff;fill-rule:nonzero;stroke-width:0.474063;-inkscape-stroke:none"
         d="m 1176.8809,310.48828 a 24.393553,24.393553 0 0 0 -4.7813,0.0195 24.393553,24.393553 0 0 0 -20.8808,17.28125 c -2.695,9.01811 -5.9484,20.10948 -5.9004,33.42578 l 0.021,-1.16211 c -0.3056,6.93534 -1.3075,16.11864 -0.1601,27.16993 0.1286,4.64799 0.1314,8.46854 -0.076,11.67773 -1.9288,6.79916 -1.6603,9.71578 -1.0703,7.71289 a 24.395992,24.395992 0 0 0 -0.4629,1.82617 c -2.0915,9.84956 -1.8321,16.9176 -2.332,20.69336 a 24.395992,24.395992 0 0 0 -0.209,2.88086 c -0.027,2.03193 0.037,3.10331 0.037,3.21485 a 24.393553,24.393553 0 0 0 24.3984,24.38867 24.393553,24.393553 0 0 0 24.3887,-24.39844 c -3e-4,-1.33858 -0.018,-1.59698 -0.029,-1.89063 0.8306,-7.19285 0.9875,-12.31044 1.457,-14.62695 2.1371,-7.72637 2.0446,-10.52537 1.0899,-7.74609 a 24.395992,24.395992 0 0 0 1.1992,-5.47852 c 0.7602,-7.54822 0.5333,-14.16834 0.377,-19.75976 a 24.395992,24.395992 0 0 0 -0.1993,-2.49414 c -0.6094,-4.6418 -0.082,-11.62892 0.3321,-21.02149 a 24.395992,24.395992 0 0 0 0.023,-1.16211 c -0.017,-4.72764 1.4318,-11.15119 3.8613,-19.28125 a 24.393553,24.393553 0 0 0 -16.3886,-30.35547 24.393553,24.393553 0 0 0 -4.6953,-0.91406 z m -201.86137,20.36524 a 24.395992,24.395992 0 0 0 -25.68164,22.94921 c -0.45639,7.95517 -0.51292,16.30043 -0.40234,24.73633 -2.43246,-4.03373 -6.42911,-8.49584 -13.11914,-11.08008 -9.71611,-3.75315 -18.9751,-0.40766 -23.25391,2.12891 -4.27881,2.53657 -6.24884,4.75139 -7.97656,6.65625 -6.91091,7.61943 -11.47168,15.22398 -9.79492,13.3125 a 24.395992,24.395992 0 0 0 -0.36133,0.42188 c -1.12987,1.34877 -2.20901,2.70424 -3.24414,4.0664 -1.26316,-8.26718 -2.46261,-16.21912 -3.95703,-25.44336 a 24.393553,24.393553 0 0 0 -27.98047,-20.17968 24.393553,24.393553 0 0 0 -20.17969,27.98242 c 4.32223,26.67864 7.21204,50.07644 13.41406,77.7539 -0.73376,10.31138 1.58936,14.36893 6.57813,22.61719 1.41293,2.3361 3.14049,5.02694 7.01953,8.16016 3.87903,3.13322 11.75136,7.11556 20.84375,5.62109 9.09239,-1.49447 14.98302,-7.46754 17.75586,-11.54883 2.11989,-3.12024 3.12182,-5.66982 3.91601,-8.09961 3.43277,-7.99141 6.2724,-15.26473 8.98438,-22.04687 6.03716,23.28959 13.57282,48.54105 24.56054,68.60351 a 24.395992,24.395992 0 0 0 0.99805,1.66211 c 2.31968,3.53672 7.51429,9.8468 17.44727,11.42383 9.93298,1.57703 18.21379,-3.60188 21.62695,-6.8789 6.82633,-6.55405 6.70165,-9.53995 7.83399,-12.58008 2.26467,-6.08026 3.44037,-11.67814 4.67773,-17.7793 1.66047,-8.18741 2.77978,-15.30208 3.59375,-20.83984 1.23892,1.42796 2.46094,2.8688 3.77734,4.24023 a 24.395992,24.395992 0 0 0 30.4609,3.83594 c 5.3464,-3.31775 9.7721,-6.6546 13.9571,-9.7461 -0.1166,2.22872 -0.1874,4.55689 -0.1231,7.09375 a 24.393553,24.393553 0 0 0 25.0059,23.76758 24.393553,24.393553 0 0 0 23.7676,-25.0039 c 0.03,1.18557 2.5286,-12.18809 2.7207,-25.87305 0.096,-6.84248 0.6494,-15.93024 -7.9102,-26.49805 -4.2798,-5.2839 -11.5481,-9.6475 -18.3594,-10.95898 -5.4053,-1.04078 -10.2097,-0.65477 -14.5468,0.27344 -13.8608,0.70934 -23.1744,6.75046 -30.9805,11.89453 -10.2462,-20.60695 -19.9345,-51.70502 -29.40235,-78.44141 a 24.395992,24.395992 0 0 0 -21.66602,-16.20312 z m 73.90237,118.29296 c 0.086,0.0929 0.1872,0.41838 0.1797,0.95704 -3e-4,0.0209 -0.01,0.0589 -0.01,0.0801 -0.2379,-0.71592 -0.2831,-1.15941 -0.1699,-1.03711 z m -146.97659,3.1836 c -0.15126,0.51025 -0.36573,1.53278 -0.62695,3.57422 a 24.395992,24.395992 0 0 0 0.19336,-3.56446 c 0.19544,0.11922 0.32733,0.0674 0.43359,-0.01 z m 42.76172,40.37304 c -0.11423,0.39366 -0.33286,1.23577 -0.37891,1.35938 -0.0731,0.19618 -0.4292,-0.0676 0.37891,-1.35938 z m 218.46877,0.62696 a 24.393553,24.393553 0 0 0 -1.9199,0.54687 24.393553,24.393553 0 0 0 -4.5293,1.28321 24.393553,24.393553 0 0 0 -4.2735,2.00586 24.393553,24.393553 0 0 0 -3.6953,2.92187 24.393553,24.393553 0 0 0 -3.1758,3.48242 24.393553,24.393553 0 0 0 -2.1425,3.68555 c 0.034,-0.0519 0.3542,-0.53933 0.5625,-0.85547 a 24.393553,24.393553 0 0 0 -0.7188,1.29102 24.393553,24.393553 0 0 0 -2.2266,6.16211 c 0.025,-0.13837 0.01,-0.091 0.1348,-0.64649 0.058,-0.2478 0.1266,-0.55534 0.3086,-1.19141 0.091,-0.31802 0.2063,-0.71661 0.4316,-1.35937 0.1702,-0.48549 0.731,-1.70865 1.0762,-2.47266 a 24.393553,24.393553 0 0 0 -1.0937,1.95703 c -1.7301,5.3502 -0.8712,3.53851 -0.9512,4.03126 -0.08,0.49274 -0.1238,0.78501 -0.1914,1.30859 -0.017,0.13089 -0.036,0.27057 -0.066,0.54687 -0.03,0.2763 -0.1725,-0.71216 -0.1485,2.86328 0,0.44693 0,1.00729 0.1,2.05665 0.048,0.52468 0.291,2.12677 0.2911,2.12695 0,1.7e-4 1.1835,4.27723 1.1836,4.27734 0,1.1e-4 6.8866,9.84957 6.8867,9.84961 0,5e-5 24.0429,4.53322 24.0429,4.53321 10e-5,-3e-5 10.8418,-7.64835 10.8418,-7.64844 10e-5,-9e-5 2.6425,-4.01157 2.6426,-4.01172 2e-4,-3.1e-4 1.2001,-2.63341 1.4258,-3.27734 0.2257,-0.64394 0.3421,-1.04156 0.4336,-1.36133 0.183,-0.63954 0.2537,-0.95343 0.3125,-1.20703 0.2352,-1.01443 0.2261,-1.08406 0.2617,-1.28321 -0.1186,0.46264 -0.1124,0.5675 -0.6426,2.20703 a 24.393553,24.393553 0 0 0 0.7911,-3.17382 c 2e-4,9.7e-4 0.01,-0.0142 0.01,-0.0156 0.028,-0.18514 0.068,-0.40296 0.1074,-0.66601 a 24.393553,24.393553 0 0 0 0,-0.0254 c -0.016,-0.006 -0.038,0.0131 -0.045,0.0723 -0.026,0.23567 -0.036,0.32139 -0.045,0.38867 0,0.0359 0,0.01 -0.01,0.0332 a 24.393553,24.393553 0 0 0 0.051,-0.42187 24.393553,24.393553 0 0 0 0.1054,-0.9043 c 0,0.0337 0,0.14324 0,0.17188 a 24.393553,24.393553 0 0 0 0.043,-0.51563 24.393553,24.393553 0 0 0 0.1348,-1.5957 24.393553,24.393553 0 0 0 -0.021,-1.58008 24.393553,24.393553 0 0 0 -0.074,-1.60742 24.393553,24.393553 0 0 0 -0.2305,-1.56641 24.393553,24.393553 0 0 0 -0.2813,-1.57421 24.393553,24.393553 0 0 0 -0.4394,-1.54883 24.393553,24.393553 0 0 0 -0.4766,-1.50196 24.393553,24.393553 0 0 0 -0.6386,-1.47656 24.393553,24.393553 0 0 0 -0.6719,-1.43555 24.393553,24.393553 0 0 0 -0.8145,-1.36328 24.393553,24.393553 0 0 0 -0.8652,-1.34961 24.393553,24.393553 0 0 0 -0.9824,-1.24218 24.393553,24.393553 0 0 0 -1.0332,-1.22657 24.393553,24.393553 0 0 0 -1.1446,-1.11132 24.393553,24.393553 0 0 0 -1.1718,-1.06836 24.393553,24.393553 0 0 0 -1.293,-0.96289 24.393553,24.393553 0 0 0 -1.2949,-0.90235 24.393553,24.393553 0 0 0 -1.4024,-0.78125 24.393553,24.393553 0 0 0 -1.4082,-0.72851 24.393553,24.393553 0 0 0 -1.4746,-0.58594 24.393553,24.393553 0 0 0 -1.1328,-0.45117 24.393553,24.393553 0 0 0 -0.166,-0.0195 24.393553,24.393553 0 0 0 -3.6875,-0.88868 24.393553,24.393553 0 0 0 -2.8047,0.13086 24.393553,24.393553 0 0 0 -2.7949,-0.32812 z"
         transform="matrix(2.0497219,0,0,2.0497219,-1577.9949,-482.26936)" />
    </g>
  </g>
</svg>
