<?xml version="1.0" encoding="UTF-8" standalone="no"?>
<!-- Created with Inkscape (http://www.inkscape.org/) -->

<svg
   width="250"
   height="60"
   viewBox="0 0 66.145835 15.875"
   version="1.1"
   id="svg291"
   inkscape:version="1.2 (dc2aedaf03, 2022-05-15)"
   inkscape:export-xdpi="96"
   inkscape:export-ydpi="96"
   sodipodi:docname="patreon.svg"
   xmlns:inkscape="http://www.inkscape.org/namespaces/inkscape"
   xmlns:sodipodi="http://sodipodi.sourceforge.net/DTD/sodipodi-0.dtd"
   xmlns="http://www.w3.org/2000/svg"
   xmlns:svg="http://www.w3.org/2000/svg">
  <sodipodi:namedview
     id="namedview293"
     pagecolor="#ffffff"
     bordercolor="#666666"
     borderopacity="1.0"
     inkscape:pageshadow="2"
     inkscape:pageopacity="0.0"
     inkscape:pagecheckerboard="0"
     inkscape:document-units="px"
     showgrid="false"
     width="1920px"
     units="px"
     borderlayer="true"
     inkscape:showpageshadow="false"
     inkscape:snap-global="false"
     inkscape:zoom="4"
     inkscape:cx="80.375"
     inkscape:cy="32.25"
     inkscape:window-width="2560"
     inkscape:window-height="1377"
     inkscape:window-x="-8"
     inkscape:window-y="-8"
     inkscape:window-maximized="1"
     inkscape:current-layer="layer1"
     inkscape:deskcolor="#d1d1d1" />
  <defs
     id="defs288">
    <clipPath
       clipPathUnits="userSpaceOnUse"
       id="clipPath53738">
      <circle
         style="fill:#ffbc05;fill-opacity:1;stroke-width:2.304;stroke-linecap:round;stroke-linejoin:round;paint-order:markers stroke fill"
         id="circle53740"
         cx="-57.216148"
         cy="44.714584"
         r="37.769272" />
    </clipPath>
  </defs>
  <g
     inkscape:label="Layer 1"
     inkscape:groupmode="layer"
     id="layer1">
    <rect
       style="font-size:5.19048px;line-height:1.25;font-family:'Baloo Tammudu 2';-inkscape-font-specification:'Baloo Tammudu 2, ';fill:#f1465a;fill-opacity:1;stroke-width:4.44081;stroke-linecap:round;stroke-linejoin:round;stroke-dashoffset:0.7;paint-order:markers stroke fill"
       id="rect1251"
       width="66.145836"
       height="15.875"
       x="0"
       y="-2.220446e-16" />
    <g
       aria-label="Become a Patron"
       id="text4040"
       style="font-size:5.2911px;line-height:1.25;fill:#ffffff;stroke-width:0.132278">
      <path
         d="m 19.924851,5.8554675 h 1.513957 q 0.449537,0 0.669138,0.038753 0.222185,0.03617 0.395283,0.1550127 0.175681,0.1188431 0.29194,0.3177761 0.11626,0.1963494 0.11626,0.4417861 0,0.2661052 -0.144679,0.48829 -0.142095,0.2221849 -0.387531,0.3332773 0.346195,0.1007583 0.53221,0.3436115 0.186015,0.2428532 0.186015,0.5709634 0,0.2583545 -0.121427,0.5037913 -0.118843,0.2428532 -0.32811,0.3901153 -0.206683,0.1446785 -0.511542,0.1782646 -0.191182,0.020668 -0.922325,0.025835 h -1.289189 z m 0.764729,0.6303849 v 0.8758218 h 0.501208 q 0.446953,0 0.555462,-0.012918 0.19635,-0.023252 0.307442,-0.1343443 0.113676,-0.113676 0.113676,-0.2971077 0,-0.175681 -0.09818,-0.2841899 -0.09559,-0.1110924 -0.286773,-0.1343443 -0.113676,-0.012918 -0.653637,-0.012918 z m 0,1.5062067 v 1.0127496 h 0.707892 q 0.413367,0 0.524459,-0.023252 0.170514,-0.031002 0.276439,-0.1498456 0.108509,-0.1214266 0.108509,-0.3229431 0,-0.170514 -0.08267,-0.289357 -0.08267,-0.1188431 -0.24027,-0.1730975 -0.155012,-0.054254 -0.676889,-0.054254 z"
         style="font-weight:bold;font-family:Arial;-inkscape-font-specification:'Arial Bold'"
         id="path2537" />
      <path
         d="m 25.327043,8.7697061 0.723393,0.1214267 q -0.139511,0.3978659 -0.441786,0.607133 -0.299691,0.2066836 -0.751812,0.2066836 -0.715642,0 -1.059253,-0.4676216 -0.271272,-0.374614 -0.271272,-0.9455775 0,-0.6820558 0.356529,-1.067004 0.356529,-0.3875318 0.901657,-0.3875318 0.6123,0 0.966246,0.4056166 0.353945,0.403033 0.338444,1.237518 h -1.818815 q 0.0077,0.3229431 0.175681,0.5037913 0.16793,0.1782646 0.418534,0.1782646 0.170514,0 0.286773,-0.093008 0.11626,-0.093008 0.175681,-0.2996913 z M 25.36838,8.0359794 Q 25.36063,7.7207869 25.205617,7.5580236 25.050604,7.3926767 24.828419,7.3926767 q -0.237686,0 -0.392699,0.1730975 -0.155012,0.1730975 -0.152429,0.4702052 z"
         style="font-weight:bold;font-family:Arial;-inkscape-font-specification:'Arial Bold'"
         id="path2539" />
      <path
         d="M 29.073183,7.7104527 28.357541,7.83963 Q 28.321372,7.6251957 28.192195,7.5166869 28.065601,7.408178 27.861501,7.408178 q -0.271272,0 -0.434036,0.1885987 -0.160179,0.1860153 -0.160179,0.6252179 0,0.48829 0.162763,0.6898065 0.165347,0.2015165 0.441786,0.2015165 0.206684,0 0.338444,-0.1162595 0.131761,-0.1188431 0.186016,-0.4056166 l 0.713058,0.1214267 q -0.111092,0.4908735 -0.426285,0.7414774 -0.315192,0.2506038 -0.844819,0.2506038 -0.601966,0 -0.961079,-0.3797811 -0.356529,-0.3797811 -0.356529,-1.0515028 0,-0.6794723 0.359113,-1.0566699 0.359113,-0.3797811 0.971413,-0.3797811 0.501207,0 0.795731,0.2170178 0.297108,0.2144342 0.426285,0.6562204 z"
         style="font-weight:bold;font-family:Arial;-inkscape-font-specification:'Arial Bold'"
         id="path2541" />
      <path
         d="m 29.455549,8.2323288 q 0,-0.3616963 0.178264,-0.7001407 0.178265,-0.3384444 0.503792,-0.516709 0.32811,-0.1782646 0.731143,-0.1782646 0.622634,0 1.0205,0.4056166 0.397866,0.403033 0.397866,1.0205002 0,0.6226344 -0.403033,1.033418 -0.400449,0.4082001 -1.010166,0.4082001 -0.377198,0 -0.720809,-0.170514 Q 29.812078,9.3639215 29.633813,9.0358113 29.455549,8.7051175 29.455549,8.2323288 Z m 0.744061,0.038753 q 0,0.4082001 0.193766,0.6252178 0.193765,0.2170178 0.477955,0.2170178 0.28419,0 0.475373,-0.2170178 0.193766,-0.2170177 0.193766,-0.6303849 0,-0.403033 -0.193766,-0.6200508 -0.191183,-0.2170178 -0.475373,-0.2170178 -0.28419,0 -0.477955,0.2170178 Q 30.19961,7.8628819 30.19961,8.271082 Z"
         style="font-weight:bold;font-family:Arial;-inkscape-font-specification:'Arial Bold'"
         id="path2543" />
      <path
         d="m 32.801238,6.8992196 h 0.669139 v 0.374614 q 0.359112,-0.4366191 0.855153,-0.4366191 0.263522,0 0.457287,0.1085089 0.193766,0.1085089 0.317776,0.3281102 0.180849,-0.2196013 0.390116,-0.3281102 0.209267,-0.1085089 0.446953,-0.1085089 0.302275,0 0.511542,0.1240102 0.209267,0.1214266 0.312609,0.3591127 0.07492,0.1756811 0.07492,0.5683799 v 1.754227 H 36.11076 V 8.0747326 q 0,-0.4082001 -0.07492,-0.5270432 -0.100759,-0.1550127 -0.310026,-0.1550127 -0.152429,0 -0.286773,0.093008 -0.134344,0.093008 -0.193766,0.2738558 -0.05942,0.1782646 -0.05942,0.5657963 V 9.6429443 H 34.459874 V 8.1393212 q 0,-0.4004495 -0.03875,-0.516709 -0.03875,-0.1162595 -0.121426,-0.1730975 -0.08009,-0.056838 -0.219602,-0.056838 -0.16793,0 -0.302275,0.090424 -0.134344,0.090424 -0.193765,0.260938 -0.05684,0.170514 -0.05684,0.5657963 v 1.3331092 h -0.725977 z"
         style="font-weight:bold;font-family:Arial;-inkscape-font-specification:'Arial Bold'"
         id="path2545" />
      <path
         d="m 39.149009,8.7697061 0.723392,0.1214267 q -0.139511,0.3978659 -0.441786,0.607133 -0.299691,0.2066836 -0.751811,0.2066836 -0.715642,0 -1.059254,-0.4676216 -0.271272,-0.374614 -0.271272,-0.9455775 0,-0.6820558 0.356529,-1.067004 0.356529,-0.3875318 0.901657,-0.3875318 0.6123,0 0.966246,0.4056166 0.353946,0.403033 0.338444,1.237518 h -1.818815 q 0.0077,0.3229431 0.175681,0.5037913 0.16793,0.1782646 0.418534,0.1782646 0.170514,0 0.286774,-0.093008 0.116259,-0.093008 0.175681,-0.2996913 z m 0.04134,-0.7337267 q -0.0078,-0.3151925 -0.162763,-0.4779558 -0.155013,-0.1653469 -0.377197,-0.1653469 -0.237687,0 -0.392699,0.1730975 -0.155013,0.1730975 -0.152429,0.4702052 z"
         style="font-weight:bold;font-family:Arial;-inkscape-font-specification:'Arial Bold'"
         id="path2547" />
      <path
         d="M 42.515368,7.7362882 41.856564,7.6174451 q 0.111092,-0.3978659 0.382365,-0.5890482 0.271272,-0.1911824 0.806066,-0.1911824 0.485706,0 0.723392,0.1162596 0.237686,0.1136759 0.333278,0.2919405 0.09817,0.1756811 0.09817,0.6484698 l -0.0077,0.8474028 q 0,0.3616962 0.03359,0.5347938 0.03617,0.1705139 0.13176,0.3668633 H 43.63921 q -0.02842,-0.072339 -0.06976,-0.2144342 -0.01808,-0.064589 -0.02584,-0.085257 -0.186015,0.1808482 -0.397866,0.2712722 -0.211851,0.090424 -0.45212,0.090424 -0.423702,0 -0.669139,-0.2299355 -0.242853,-0.2299355 -0.242853,-0.5812976 0,-0.232519 0.111093,-0.4133672 0.111092,-0.1834317 0.310025,-0.2790228 0.201516,-0.098175 0.578714,-0.170514 0.508958,-0.095591 0.705308,-0.1782646 v -0.072339 q 0,-0.2092671 -0.103342,-0.2971076 -0.103342,-0.090424 -0.390115,-0.090424 -0.193766,0 -0.302275,0.077506 -0.108509,0.074923 -0.175681,0.2661052 z m 0.971413,0.5890482 q -0.139512,0.046504 -0.441786,0.1110925 -0.302275,0.064589 -0.395283,0.1265937 -0.142095,0.1007582 -0.142095,0.2557709 0,0.1524292 0.113676,0.2635216 0.113676,0.1110924 0.289357,0.1110924 0.19635,0 0.374614,-0.1291772 0.131761,-0.098175 0.173098,-0.2402697 0.02842,-0.093008 0.02842,-0.3539457 z"
         style="font-weight:bold;font-family:Arial;-inkscape-font-specification:'Arial Bold'"
         id="path2549" />
      <path
         d="M 46.390685,9.6429443 V 5.8554675 h 1.227184 q 0.697557,0 0.909408,0.056838 0.325527,0.085257 0.545128,0.3720304 0.219601,0.28419 0.219601,0.7363103 0,0.3487786 -0.126593,0.5864647 -0.126594,0.2376862 -0.322943,0.374614 -0.193766,0.1343444 -0.395283,0.1782646 -0.273855,0.054255 -0.793148,0.054255 h -0.498624 v 1.4287003 z m 0.76473,-3.1467577 v 1.0747547 h 0.418534 q 0.45212,0 0.60455,-0.059422 0.152429,-0.059422 0.237686,-0.1860153 0.08784,-0.1265937 0.08784,-0.2945241 0,-0.2066836 -0.121426,-0.3410279 -0.121427,-0.1343444 -0.307442,-0.1679304 -0.136928,-0.025836 -0.550295,-0.025836 z"
         style="font-weight:bold;font-family:Arial;-inkscape-font-specification:'Arial Bold'"
         id="path2551" />
      <path
         d="M 50.457184,7.7362882 49.79838,7.6174451 q 0.111093,-0.3978659 0.382365,-0.5890482 0.271272,-0.1911824 0.806066,-0.1911824 0.485706,0 0.723393,0.1162596 0.237686,0.1136759 0.333277,0.2919405 0.09817,0.1756811 0.09817,0.6484698 l -0.0078,0.8474028 q 0,0.3616962 0.03359,0.5347938 0.03617,0.1705139 0.131761,0.3668633 h -0.718226 q -0.02842,-0.072339 -0.06976,-0.2144342 -0.01808,-0.064589 -0.02584,-0.085257 -0.186015,0.1808482 -0.397866,0.2712722 -0.21185,0.090424 -0.45212,0.090424 -0.423702,0 -0.669138,-0.2299355 -0.242854,-0.2299355 -0.242854,-0.5812976 0,-0.232519 0.111093,-0.4133672 0.111092,-0.1834317 0.310025,-0.2790228 0.201517,-0.098175 0.578714,-0.170514 0.508959,-0.095591 0.705308,-0.1782646 v -0.072339 q 0,-0.2092671 -0.103342,-0.2971076 -0.103341,-0.090424 -0.390115,-0.090424 -0.193766,0 -0.302275,0.077506 -0.108509,0.074923 -0.175681,0.2661052 z m 0.971413,0.5890482 q -0.139511,0.046504 -0.441786,0.1110925 -0.302275,0.064589 -0.395282,0.1265937 -0.142095,0.1007582 -0.142095,0.2557709 0,0.1524292 0.113676,0.2635216 0.113676,0.1110924 0.289357,0.1110924 0.196349,0 0.374614,-0.1291772 0.13176,-0.098175 0.173097,-0.2402697 0.02842,-0.093008 0.02842,-0.3539457 z"
         style="font-weight:bold;font-family:Arial;-inkscape-font-specification:'Arial Bold'"
         id="path2553" />
      <path
         d="m 54.115484,6.8992196 v 0.5787141 h -0.496041 v 1.1057572 q 0,0.3358609 0.01292,0.3926988 0.0155,0.054254 0.06459,0.090424 0.05167,0.03617 0.124011,0.03617 0.100758,0 0.29194,-0.069756 l 0.062,0.5632128 q -0.253187,0.1085089 -0.573547,0.1085089 -0.196349,0 -0.353945,-0.064589 Q 53.089816,9.5731886 53.014894,9.4698468 52.942554,9.3639215 52.914135,9.1856569 52.890883,9.0590632 52.890883,8.674115 V 7.4779337 H 52.557606 V 6.8992196 h 0.333277 v -0.545128 l 0.72856,-0.4237013 v 0.9688293 z"
         style="font-weight:bold;font-family:Arial;-inkscape-font-specification:'Arial Bold'"
         id="path2555" />
      <path
         d="M 55.314249,9.6429443 H 54.588273 V 6.8992196 h 0.674305 v 0.3901153 q 0.173098,-0.2764393 0.310026,-0.3642798 0.139511,-0.087841 0.315192,-0.087841 0.24802,0 0.477956,0.1369279 l -0.224769,0.6329685 q -0.183431,-0.118843 -0.341028,-0.118843 -0.152429,0 -0.258354,0.085257 -0.105925,0.082673 -0.16793,0.3022748 -0.05942,0.2196013 -0.05942,0.919742 z"
         style="font-weight:bold;font-family:Arial;-inkscape-font-specification:'Arial Bold'"
         id="path2557" />
      <path
         d="m 56.510431,8.2323288 q 0,-0.3616963 0.178264,-0.7001407 0.178265,-0.3384444 0.503792,-0.516709 0.32811,-0.1782646 0.731143,-0.1782646 0.622634,0 1.0205,0.4056166 0.397866,0.403033 0.397866,1.0205002 0,0.6226344 -0.403033,1.033418 -0.400449,0.4082001 -1.010166,0.4082001 -0.377198,0 -0.720809,-0.170514 Q 56.86696,9.3639215 56.688695,9.0358113 56.510431,8.7051175 56.510431,8.2323288 Z m 0.744061,0.038753 q 0,0.4082001 0.193766,0.6252178 0.193766,0.2170178 0.477955,0.2170178 0.28419,0 0.475373,-0.2170178 0.193766,-0.2170177 0.193766,-0.6303849 0,-0.403033 -0.193766,-0.6200508 -0.191183,-0.2170178 -0.475373,-0.2170178 -0.284189,0 -0.477955,0.2170178 -0.193766,0.2170178 -0.193766,0.6252179 z"
         style="font-weight:bold;font-family:Arial;-inkscape-font-specification:'Arial Bold'"
         id="path2559" />
      <path
         d="M 62.406079,9.6429443 H 61.680103 V 8.242663 q 0,-0.4443697 -0.0465,-0.573547 -0.0465,-0.1317608 -0.152429,-0.2041 -0.103341,-0.072339 -0.250604,-0.072339 -0.188598,0 -0.338444,0.1033418 -0.149846,0.1033418 -0.206684,0.2738558 -0.05425,0.1705139 -0.05425,0.6303849 V 9.6429443 H 59.905208 V 6.8992196 h 0.674305 v 0.403033 q 0.359113,-0.4650381 0.904241,-0.4650381 0.24027,0 0.439202,0.087841 0.198933,0.085257 0.299692,0.2196013 0.103341,0.1343443 0.142095,0.3048583 0.04134,0.170514 0.04134,0.48829 z"
         style="font-weight:bold;font-family:Arial;-inkscape-font-specification:'Arial Bold'"
         id="path2561" />
    </g>
    <g
       id="g14623"
       transform="translate(-0.39687501,-0.26458333)">
      <rect
         style="opacity:1;fill:#ffffff;fill-opacity:1;stroke:none;stroke-width:3.96875;stroke-linecap:round;stroke-linejoin:round;stroke-dashoffset:0.7;paint-order:markers stroke fill"
         id="rect9457"
         width="1.8708867"
         height="9.822155"
         x="6.5481038"
         y="3.2740533"
         ry="0.24273703" />
      <circle
         style="opacity:1;fill:#ffffff;fill-opacity:1;stroke:none;stroke-width:5.14956;stroke-linecap:round;stroke-linejoin:round;stroke-dashoffset:0.7;paint-order:markers stroke fill"
         id="path9511"
         cx="12.645509"
         cy="6.6007934"
         r="3.3378472" />
    </g>
    <text
       xml:space="preserve"
       style="font-style:normal;font-weight:normal;font-size:5.2911px;line-height:1.25;font-family:sans-serif;fill:#ffffff;fill-opacity:1;stroke:none;stroke-width:0.132278"
       x="19.537319"
       y="-8.2825766"
       id="text2535"><tspan
         sodipodi:role="line"
         id="tspan2533"
         style="font-style:normal;font-variant:normal;font-weight:bold;font-stretch:normal;font-family:Arial;-inkscape-font-specification:'Arial Bold';fill:#ffffff;fill-opacity:1;stroke-width:0.132278"
         x="19.537319"
         y="-8.2825766">Become a Patron</tspan></text>
  </g>
</svg>
