<?xml version="1.0" encoding="UTF-8" standalone="no"?>
<!-- Created with Inkscape (http://www.inkscape.org/) -->

<svg
   width="16"
   height="16"
   viewBox="0 0 4.2333333 4.2333335"
   version="1.1"
   id="svg291"
   inkscape:version="1.4.3 (0d15f75042, 2025-12-25)"
   sodipodi:docname="dialogue_state_context.svg"
   xmlns:inkscape="http://www.inkscape.org/namespaces/inkscape"
   xmlns:sodipodi="http://sodipodi.sourceforge.net/DTD/sodipodi-0.dtd"
   xmlns="http://www.w3.org/2000/svg"
   xmlns:svg="http://www.w3.org/2000/svg">
  <sodipodi:namedview
     id="namedview293"
     pagecolor="#ffffff"
     bordercolor="#666666"
     borderopacity="1.0"
     inkscape:pageshadow="2"
     inkscape:pageopacity="0.0"
     inkscape:pagecheckerboard="0"
     inkscape:document-units="px"
     showgrid="false"
     width="1920px"
     units="px"
     borderlayer="true"
     inkscape:showpageshadow="false"
     inkscape:zoom="22.627417"
     inkscape:cx="7.9770484"
     inkscape:cy="16.373941"
     inkscape:window-width="2560"
     inkscape:window-height="1371"
     inkscape:window-x="0"
     inkscape:window-y="0"
     inkscape:window-maximized="1"
     inkscape:current-layer="layer1"
     inkscape:deskcolor="#d1d1d1" />
  <defs
     id="defs288" />
  <g
     inkscape:label="Layer 1"
     inkscape:groupmode="layer"
     id="layer1">
    <path
       d="m 3.3514146,0.2615716 c 0,0 -0.8671784,0.0083 -1.300822,0.0164098 C 1.660722,0.2852674 0.88204022,0.3043359 0.88204022,0.3043359 0.53127079,0.3104009 0.21675613,0.61197058 0.22466768,0.96270319 l 0.0402783,1.78863071 c 0.008809,0.3906186 0.32488212,0.6130371 0.6170948,0.6081442 l 0.53305872,-0.00896 c 0.033249,0.341098 0.2580945,0.5296145 0.566872,0.6056622 0.1243645,0.030629 0.3369474,0.018304 0.485322,-0.056687 C 2.0976195,3.7446964 2.0956483,3.5484534 2.1306506,3.3385929 L 3.4324675,3.3167146 C 3.7832401,3.3108462 3.9896367,2.9932414 3.9928752,2.6424347 L 4.0087867,0.89408156 C 4.0120258,0.54327464 3.7022262,0.26424537 3.3514146,0.2615716 Z M 1.8467731,0.74359474 V 1.0536534 c -0.026385,0.00931 -0.052259,0.020001 -0.077515,0.032039 L 1.5501503,0.86658474 1.176013,1.2407221 1.395121,1.4598302 c -0.012038,0.025256 -0.022733,0.05113 -0.032039,0.077515 H 1.053023 v 0.5291663 h 0.3100586 c 0.00931,0.026385 0.020001,0.052259 0.032039,0.077515 L 1.1760126,2.3631346 1.5501499,2.7372719 1.769258,2.5181639 c 0.025256,0.012038 0.05113,0.022733 0.077515,0.032039 V 2.8602615 H 2.3759397 V 2.550203 c 0.026385,-0.00931 0.052259,-0.020001 0.077515,-0.032039 L 2.6725625,2.7372716 3.0466998,2.3631343 2.8275918,2.1440262 c 0.012038,-0.025256 0.022733,-0.05113 0.032039,-0.077515 H 3.1696897 V 1.5373449 H 2.8596312 c -0.00931,-0.026385 -0.020001,-0.052259 -0.032039,-0.077515 L 3.0466998,1.2407221 2.6725625,0.86658474 2.4534544,1.0856928 c -0.025255,-0.012038 -0.05113,-0.022733 -0.077515,-0.032039 V 0.74359474 Z M 2.1113564,1.5373449 c 0.1461253,0 0.2645833,0.118458 0.2645833,0.2645833 0,0.1461253 -0.118458,0.2645833 -0.2645833,0.2645833 -0.1461253,0 -0.2645833,-0.118458 -0.2645833,-0.2645833 0,-0.1461253 0.118458,-0.2645833 0.2645833,-0.2645833 z"
       style="clip-rule:evenodd;fill:#e0e0e0;fill-opacity:1;fill-rule:evenodd;stroke:none;stroke-width:0.0021699;stroke-linecap:round;stroke-linejoin:round;stroke-miterlimit:40"
       id="path1"
       sodipodi:nodetypes="cccccccscccccccccccccccccccccccccccccccccccccccsssss" />
  </g>
</svg>
